<svg width="201" height="188" viewBox="0 0 201 188" fill="none" xmlns="http://www.w3.org/2000/svg">
<g clip-path="url(#clip0_67_327)">
<path d="M13.667 175.514C12.7026 175.514 11.7363 175.559 10.7926 175.652L10.6553 175.665C4.39582 176.302 -0.182698 179.998 0.00560275 184.262L0.0420042 185.033C0.0660129 185.52 0.0915893 186.044 0.112641 186.625C0.124042 186.912 0.463864 187.132 0.886709 187.132H154.855C165.71 187.056 176.526 186.961 187.001 186.848C188.967 186.853 190.931 186.736 192.882 186.497C195.793 186.101 197.813 185.315 199.059 184.094H199.06C200.609 182.58 200.658 180.674 200.564 178.521C200.373 174.172 200.184 169.604 199.995 165.049C199.828 161.035 199.662 157.032 199.496 153.199C199.393 150.925 199.165 148.917 197.406 147.383C195.499 145.723 192.021 144.882 187.068 144.882C187.008 144.882 186.949 144.882 186.888 144.882C171.367 144.946 155.989 151.09 148.621 160.171C147.772 161.216 146.982 162.336 146.217 163.418C145.099 165.081 143.866 166.662 142.525 168.151C141.781 168.953 140.965 169.685 140.087 170.339C140.027 170.387 139.958 170.438 139.886 170.486C139.72 170.61 139.547 170.73 139.378 170.837C138.402 171.488 137.359 172.033 136.268 172.465L136.159 172.507C136.077 172.541 135.988 172.574 135.899 172.605C135.27 172.837 134.629 173.034 133.978 173.196C131.17 173.909 127.976 174.08 124.486 173.703C121.264 173.344 118.095 172.601 115.049 171.489C111.817 170.314 108.793 168.848 105.867 167.43C104.583 166.807 103.254 166.164 101.926 165.554C101.677 165.439 101.432 165.326 101.182 165.214C99.5615 164.487 98.0919 163.886 96.6898 163.378C93.2454 162.12 89.6414 161.351 85.9834 161.095C82.1233 160.852 78.7216 161.311 75.8752 162.456C75.0845 162.773 74.32 163.152 73.5888 163.59C70.2175 165.605 68.139 168.58 66.1293 171.457C63.6292 175.035 61.0439 178.735 55.9391 180.653C50.0485 182.869 41.4503 181.948 35.3671 180.348C33.4546 179.844 31.5444 179.265 29.697 178.705C28.9509 178.479 28.2042 178.254 27.457 178.031C25.9888 177.595 24.7871 177.26 23.6754 176.978L23.3238 176.888C23.1282 176.839 22.9324 176.79 22.7331 176.744C21.4126 176.424 20.183 176.173 18.9722 175.976L18.6857 175.928C18.1113 175.841 17.5743 175.768 17.0474 175.707L16.8371 175.683C15.7842 175.569 14.726 175.513 13.667 175.514Z" fill="#F2F2F2"/>
<path d="M97.5147 92.2205C97.0511 92.2874 96.5784 92.2519 96.13 92.1164C95.6816 91.981 95.2684 91.7489 94.9193 91.4365C94.5703 91.1241 94.294 90.7391 94.1098 90.3084C93.9256 89.8777 93.838 89.4119 93.8533 88.9438L83.2239 84.8589L88.0367 81.4163L97.3926 85.823C98.1776 85.9009 98.9067 86.2641 99.4418 86.8437C99.9769 87.4233 100.281 88.179 100.296 88.9677C100.311 89.7564 100.036 90.5232 99.5232 91.1227C99.0106 91.7223 98.2958 92.1129 97.5143 92.2206L97.5147 92.2205Z" fill="#FFB7B7"/>
<path d="M91.4406 89.2901L93.1003 83.4359L93.0186 83.3803L77.4727 72.8199L64.0342 59.3359L56.2061 62.4635L56.7201 64.9412L56.7537 64.9716L74.6208 80.975L74.6374 80.9831L91.4406 89.2901Z" fill="#3F3D56"/>
<path d="M75.5149 102.662L51.4556 99.2896L53.573 84.5265H71.2857L75.5149 102.662Z" fill="#FFB6B6"/>
<path d="M34.634 174.952L39.5695 176.099L46.3418 157.608L39.0578 155.916L34.634 174.952Z" fill="#FFB6B6"/>
<path d="M30.0422 182.898L33.5815 183.72L34.9898 180.525L35.8312 184.243L45.2183 186.424C45.6683 186.529 46.1399 186.487 46.5643 186.305C46.9887 186.122 47.3437 185.809 47.5774 185.41C47.8111 185.012 47.9114 184.549 47.8635 184.09C47.8156 183.63 47.6221 183.198 47.3112 182.856L41.0181 175.937L41.8031 172.559L33.8091 171.197L30.0422 182.898Z" fill="#2F2E41"/>
<path d="M65.0867 177.702H70.1536L72.5647 158.159H65.0867V177.702Z" fill="#FFB6B6"/>
<path d="M62.4121 186.481H66.0457L66.6943 183.05L68.3554 186.481H77.9926C78.4545 186.481 78.9044 186.333 79.2765 186.06C79.6486 185.786 79.9234 185.4 80.0609 184.959C80.1984 184.518 80.1913 184.045 80.0406 183.608C79.89 183.172 79.6037 182.794 79.2236 182.532L71.5276 177.217V173.749L63.4328 174.232L62.4121 186.481Z" fill="#2F2E41"/>
<path d="M51.1511 96.7845L74.6801 94.9128C81.6232 111.132 77.2084 137.024 71.8726 166.17L64.3047 167.149L63.7177 120.313L44.7462 163.884L36.8586 163.481L51.1511 96.7845Z" fill="#2F2E41"/>
<path d="M64.8471 54.0753V46.1151C64.8471 43.2862 63.7233 40.5732 61.7229 38.5728C59.7226 36.5725 57.0095 35.4487 54.1806 35.4487C51.3517 35.4487 48.6386 36.5725 46.6383 38.5728C44.6379 40.5732 43.5141 43.2862 43.5141 46.1151C41.6342 50.0327 42.8103 51.8952 43.5141 54.0753C43.5147 54.455 43.6658 54.8189 43.9343 55.0873C44.2027 55.3558 44.5666 55.5069 44.9463 55.5075H63.4142C63.794 55.507 64.1581 55.356 64.4266 55.0876C64.6952 54.8191 64.8464 54.4551 64.8471 54.0753Z" fill="#2F2E41"/>
<path d="M56.8128 55.3874C61.1319 55.3874 64.6332 51.8861 64.6332 47.567C64.6332 43.2479 61.1319 39.7466 56.8128 39.7466C52.4937 39.7466 48.9924 43.2479 48.9924 47.567C48.9924 51.8861 52.4937 55.3874 56.8128 55.3874Z" fill="#FFB7B7"/>
<path d="M67.3706 46.7518C67.3681 44.5148 66.4783 42.3701 64.8965 40.7883C63.3147 39.2065 61.17 38.3167 58.933 38.3142H57.3409C55.1039 38.3167 52.9592 39.2065 51.3774 40.7883C49.7956 42.3701 48.9058 44.5148 48.9033 46.7518V46.911C50.0957 47.7262 51.2276 47.8454 52.2679 46.911L53.4154 43.6978L53.6448 46.911H55.3839L55.9636 45.2899L56.0795 46.911C58.4284 48.9115 62.8701 47.9528 67.3706 46.911V46.7518Z" fill="#2F2E41"/>
<path d="M52.253 88.8414L72.1643 88.0837L73.2773 75.0577C74.1356 72.6735 74.1496 70.6248 73.3186 68.973C72.6038 67.6153 71.4029 66.5774 69.956 66.0667L65.5991 60.8045C65.0387 60.1282 64.3349 59.5848 63.5388 59.2136C62.7427 58.8424 61.8741 58.6528 60.9957 58.6583L49.6747 58.7357C49.4019 58.5717 47.7467 57.7304 44.4824 59.1449C40.9418 60.6793 41.764 66.0105 41.7728 66.064L41.781 66.1141L41.8199 66.1482L49.3497 72.4907L52.253 88.8414Z" fill="#3F3D56"/>
<path d="M142.99 65.9389C130.142 80.4187 91.4833 83.1806 66.3201 109.76C57.8839 84.0686 69.8349 39.7203 81.7452 22.808C87.4647 14.6864 96.1762 9.16953 105.963 7.47101C115.75 5.77249 125.811 8.03145 133.933 13.751C150.845 25.6612 156.719 50.4666 142.99 65.9389Z" fill="#14B8A6"/>
<path d="M111.858 52.0477C118.604 52.0477 124.073 46.5789 124.073 39.8327C124.073 33.0866 118.604 27.6177 111.858 27.6177C105.112 27.6177 99.6431 33.0866 99.6431 39.8327C99.6431 46.5789 105.112 52.0477 111.858 52.0477Z" fill="white"/>
<path d="M55.9942 123.063C60.4128 123.063 63.9948 119.481 63.9948 115.062C63.9948 110.644 60.4128 107.062 55.9942 107.062C51.5756 107.062 47.9937 110.644 47.9937 115.062C47.9937 119.481 51.5756 123.063 55.9942 123.063Z" fill="#14B8A6"/>
<path d="M46.8414 114.483C46.493 114.17 46.2174 113.785 46.034 113.354C45.8507 112.923 45.764 112.457 45.7801 111.989C45.7962 111.521 45.9146 111.062 46.1272 110.645C46.3397 110.227 46.6411 109.862 47.0102 109.573L43.3333 98.796L49.062 100.284L51.6726 110.29C52.1162 110.942 52.305 111.735 52.2031 112.517C52.1013 113.299 51.7159 114.017 51.1201 114.534C50.5243 115.051 49.7594 115.332 48.9705 115.322C48.1816 115.313 47.4236 115.015 46.8401 114.484L46.8414 114.483Z" fill="#FFB7B7"/>
<path d="M45.1992 107.943L50.7574 105.466L48.8901 86.6662L50.6292 67.709L43.2081 63.704L41.6358 65.6865V65.7315L40.8027 89.7034L40.8072 89.7215L45.1992 107.943Z" fill="#3F3D56"/>
<path d="M177.727 143.602C177.338 145.06 176.318 146.273 175.085 147.157C174.884 147.302 174.678 147.436 174.469 147.562C174.405 147.599 174.341 147.639 174.274 147.674C174.201 147.717 174.129 147.757 174.057 147.795H168.262C168.158 147.583 168.056 147.369 167.954 147.157C165.471 141.939 163.727 136.307 164.024 130.572C164.142 128.347 164.609 126.155 165.409 124.075C167 119.931 169.904 116.344 173.899 114.538C173.998 114.493 174.102 114.447 174.204 114.404C174.172 114.519 174.14 114.632 174.108 114.747C173.679 116.291 173.376 117.867 173.202 119.459C173.186 119.583 173.173 119.706 173.162 119.832C172.781 123.673 173.119 127.551 174.158 131.268C174.161 131.276 174.164 131.287 174.166 131.295C174.394 132.118 174.659 132.927 174.959 133.725C175.195 134.354 175.45 134.976 175.728 135.587C176.891 138.151 178.45 140.883 177.727 143.602Z" fill="#E6E6E6"/>
<path d="M174.276 114.525C174.22 114.6 174.164 114.672 174.107 114.747C172.931 116.307 171.932 117.992 171.128 119.773C171.086 119.861 171.045 119.95 171.011 120.041C169.91 122.527 169.203 125.17 168.916 127.874C168.912 127.893 168.911 127.911 168.91 127.93C168.843 128.563 168.803 129.2 168.787 129.838C168.727 131.033 168.857 132.23 169.17 133.385C169.456 134.328 169.957 135.192 170.633 135.908C170.7 135.981 170.767 136.053 170.839 136.123C170.893 136.179 170.952 136.235 171.008 136.289C171.549 136.806 172.141 137.285 172.65 137.84C172.883 138.088 173.094 138.357 173.28 138.643C173.576 139.123 173.767 139.66 173.841 140.218C173.915 140.777 173.87 141.345 173.708 141.885C173.344 143.241 172.511 144.384 171.659 145.475C171.233 146.021 170.794 146.573 170.413 147.157C170.274 147.366 170.145 147.578 170.027 147.795H169.69C169.802 147.578 169.926 147.366 170.06 147.157C171.037 145.617 172.428 144.293 173.148 142.598C173.636 141.454 173.783 140.157 173.167 139.035C172.987 138.708 172.768 138.404 172.516 138.129C172.026 137.575 171.439 137.1 170.906 136.599C170.772 136.474 170.641 136.345 170.515 136.211C169.847 135.533 169.332 134.72 169.004 133.827C168.632 132.692 168.456 131.503 168.484 130.309C168.484 129.548 168.524 128.782 168.599 128.021C168.608 127.925 168.618 127.826 168.629 127.727C169.177 122.939 170.996 118.385 173.898 114.538C173.952 114.463 174.008 114.391 174.065 114.319C174.18 114.169 174.391 114.378 174.276 114.525Z" fill="white"/>
<path d="M168.737 128.047C167.809 127.891 166.967 127.41 166.361 126.691C165.754 125.971 165.424 125.06 165.428 124.119C165.428 124.08 165.443 124.044 165.47 124.016C165.497 123.989 165.534 123.973 165.572 123.973C165.611 123.972 165.648 123.986 165.676 124.012C165.704 124.038 165.721 124.074 165.723 124.112C165.718 124.988 166.026 125.838 166.592 126.506C167.158 127.175 167.945 127.62 168.81 127.76C168.997 127.791 168.924 128.077 168.737 128.047Z" fill="white"/>
<path d="M170.558 135.962C172.135 134.86 173.238 133.205 173.648 131.325C173.689 131.139 173.975 131.212 173.935 131.398C173.505 133.353 172.353 135.073 170.71 136.216C170.554 136.325 170.403 136.07 170.558 135.962Z" fill="white"/>
<path d="M171.04 119.742C171.386 119.877 171.761 119.924 172.13 119.878C172.499 119.833 172.851 119.696 173.154 119.481C173.31 119.371 173.46 119.625 173.306 119.735C172.97 119.971 172.581 120.122 172.173 120.173C171.766 120.224 171.352 120.174 170.967 120.029C170.93 120.018 170.898 119.993 170.878 119.96C170.858 119.927 170.852 119.887 170.86 119.849C170.87 119.811 170.894 119.778 170.928 119.758C170.962 119.738 171.002 119.732 171.04 119.742Z" fill="white"/>
<path d="M194.374 124.884C194.28 124.957 194.184 125.029 194.09 125.104C192.818 126.077 191.627 127.153 190.529 128.319C190.444 128.407 190.358 128.498 190.275 128.589L190.272 128.592C187.669 131.418 185.611 134.7 184.202 138.274L184.194 138.298C184.191 138.306 184.188 138.311 184.186 138.319C183.627 139.75 183.177 141.22 182.838 142.718C182.511 144.181 182.243 145.748 181.732 147.157C181.654 147.374 181.568 147.589 181.477 147.795H169.567C169.607 147.583 169.65 147.369 169.693 147.157C170.298 144.053 171.245 141.025 172.516 138.129C172.559 138.033 172.602 137.936 172.65 137.84C173.306 136.409 174.078 135.034 174.957 133.728L174.957 133.727L174.957 133.726L174.958 133.725L174.959 133.725C175.442 133.012 175.961 132.325 176.513 131.665C177.946 129.96 179.638 128.492 181.528 127.314C181.539 127.306 181.552 127.301 181.563 127.293C185.324 124.959 189.782 123.848 194.044 124.809H194.047C194.157 124.834 194.264 124.858 194.374 124.884Z" fill="#E6E6E6"/>
<path d="M194.36 125.026C194.269 125.05 194.178 125.077 194.09 125.104C192.212 125.641 190.4 126.384 188.686 127.32C188.601 127.365 188.515 127.413 188.429 127.462C186.061 128.783 183.911 130.463 182.056 132.442C182.055 132.443 182.054 132.445 182.053 132.447C182.032 132.468 182.008 132.493 181.989 132.514C181.56 132.975 181.148 133.454 180.757 133.947C179.992 134.866 179.375 135.9 178.93 137.009C178.589 137.934 178.469 138.926 178.579 139.905C178.587 140.004 178.6 140.101 178.614 140.2C178.624 140.278 178.635 140.355 178.648 140.436C178.825 141.51 179.131 142.587 179.045 143.683C178.993 144.244 178.822 144.788 178.545 145.279C178.267 145.77 177.889 146.196 177.435 146.53C177.126 146.769 176.796 146.979 176.449 147.157C175.953 147.413 175.436 147.626 174.903 147.795H173.85C173.992 147.755 174.132 147.714 174.274 147.674C174.777 147.532 175.272 147.359 175.755 147.157C176.031 147.042 176.299 146.909 176.559 146.761C177.636 146.142 178.533 145.193 178.721 143.926C178.884 142.817 178.568 141.708 178.38 140.623C178.348 140.436 178.319 140.251 178.303 140.066C178.175 139.126 178.253 138.17 178.53 137.264C178.916 136.133 179.492 135.076 180.234 134.14C180.693 133.531 181.183 132.945 181.702 132.385C181.767 132.313 181.834 132.241 181.903 132.168C183.797 130.176 185.984 128.484 188.389 127.151H188.392C190.18 126.155 192.076 125.37 194.044 124.809H194.047C194.135 124.783 194.226 124.756 194.315 124.732C194.5 124.683 194.543 124.975 194.36 125.026Z" fill="white"/>
<path d="M181.797 132.487C181.15 131.804 180.767 130.913 180.716 129.974C180.665 129.034 180.95 128.107 181.52 127.358C181.635 127.207 181.876 127.38 181.76 127.531C181.228 128.228 180.963 129.091 181.012 129.966C181.061 130.841 181.422 131.669 182.028 132.302C182.159 132.439 181.928 132.624 181.797 132.487Z" fill="white"/>
<path d="M178.486 139.904C180.408 139.973 182.286 139.315 183.744 138.062C183.889 137.937 184.074 138.168 183.93 138.292C182.409 139.594 180.454 140.274 178.454 140.198C178.263 140.19 178.296 139.896 178.486 139.904Z" fill="white"/>
<path d="M188.636 127.242C188.831 127.559 189.102 127.822 189.424 128.008C189.746 128.194 190.109 128.297 190.481 128.308C190.672 128.313 190.638 128.607 190.449 128.602C190.038 128.588 189.637 128.474 189.281 128.269C188.925 128.064 188.624 127.775 188.405 127.428C188.382 127.397 188.371 127.358 188.375 127.319C188.38 127.281 188.398 127.245 188.428 127.22C188.458 127.195 188.497 127.184 188.536 127.188C188.575 127.192 188.611 127.212 188.636 127.242Z" fill="white"/>
<path d="M105.545 182.11C105.157 183.568 104.136 184.781 102.904 185.665C102.703 185.81 102.497 185.944 102.288 186.07C102.223 186.107 102.159 186.148 102.092 186.182C102.02 186.225 101.947 186.265 101.875 186.303H96.0804C95.9759 186.091 95.8741 185.877 95.7723 185.665C93.289 180.447 91.545 174.816 91.8423 169.08C91.9603 166.855 92.4277 164.663 93.2273 162.583C94.8186 158.439 97.7226 154.852 101.717 153.046C101.816 153.001 101.921 152.955 102.022 152.912C101.99 153.028 101.958 153.14 101.926 153.255C101.497 154.799 101.195 156.375 101.02 157.968C101.004 158.091 100.991 158.214 100.98 158.34C100.6 162.181 100.938 166.059 101.977 169.776C101.979 169.784 101.982 169.795 101.985 169.803C102.213 170.626 102.477 171.436 102.778 172.233C103.014 172.863 103.268 173.484 103.547 174.095C104.709 176.659 106.268 179.391 105.545 182.11Z" fill="#E6E6E6"/>
<path d="M102.095 153.033C102.038 153.108 101.982 153.18 101.926 153.255C100.749 154.815 99.7499 156.5 98.9467 158.281C98.9039 158.37 98.8637 158.458 98.8289 158.549C97.7283 161.036 97.0216 163.678 96.7339 166.382C96.7308 166.401 96.729 166.42 96.7286 166.439C96.6616 167.071 96.6214 167.708 96.6053 168.346C96.5458 169.541 96.6751 170.738 96.9884 171.893C97.2742 172.836 97.7749 173.7 98.4511 174.416C98.5181 174.489 98.5851 174.561 98.6574 174.631C98.711 174.687 98.7699 174.743 98.8262 174.797C99.3673 175.314 99.9594 175.793 100.468 176.348C100.702 176.597 100.912 176.866 101.098 177.152C101.394 177.631 101.585 178.168 101.659 178.727C101.733 179.285 101.688 179.853 101.527 180.393C101.162 181.749 100.329 182.893 99.4772 183.983C99.0512 184.53 98.6119 185.081 98.2315 185.665C98.0922 185.874 97.9636 186.086 97.8457 186.303H97.5082C97.6207 186.086 97.7439 185.874 97.8779 185.665C98.8557 184.125 100.246 182.802 100.967 181.106C101.454 179.962 101.602 178.665 100.985 177.543C100.805 177.216 100.586 176.912 100.334 176.637C99.8442 176.083 99.2575 175.609 98.7244 175.108C98.5905 174.982 98.4592 174.853 98.3333 174.719C97.6658 174.041 97.1506 173.228 96.8224 172.335C96.4506 171.2 96.2749 170.011 96.3027 168.817C96.3027 168.057 96.3428 167.29 96.4178 166.53C96.4259 166.433 96.4366 166.334 96.4473 166.235C96.9952 161.447 98.8146 156.894 101.717 153.047C101.77 152.972 101.827 152.899 101.883 152.827C101.998 152.677 102.21 152.886 102.095 153.033Z" fill="white"/>
<path d="M96.5555 166.555C95.6276 166.399 94.7853 165.919 94.1791 165.199C93.5728 164.479 93.242 163.568 93.2459 162.627C93.2464 162.589 93.2618 162.552 93.2888 162.525C93.3158 162.497 93.3524 162.482 93.3907 162.481C93.4291 162.48 93.4663 162.494 93.4945 162.52C93.5226 162.546 93.5396 162.582 93.5418 162.62C93.5366 163.497 93.8448 164.346 94.4107 165.015C94.9766 165.684 95.763 166.128 96.6279 166.268C96.8158 166.299 96.7424 166.585 96.5555 166.555Z" fill="white"/>
<path d="M98.3769 174.47C99.9533 173.368 101.057 171.713 101.467 169.834C101.507 169.647 101.794 169.72 101.753 169.906C101.323 171.861 100.172 173.581 98.5285 174.724C98.3719 174.833 98.221 174.579 98.3769 174.47Z" fill="white"/>
<path d="M98.858 158.25C99.2044 158.385 99.579 158.432 99.9481 158.386C100.317 158.341 100.669 158.205 100.973 157.989C101.128 157.879 101.278 158.133 101.124 158.244C100.788 158.48 100.399 158.63 99.9914 158.681C99.5837 158.732 99.1697 158.682 98.7856 158.537C98.7482 158.526 98.7164 158.501 98.6964 158.468C98.6765 158.435 98.67 158.395 98.6783 158.357C98.6881 158.319 98.7125 158.287 98.7461 158.266C98.7797 158.246 98.8199 158.24 98.858 158.25Z" fill="white"/>
<path d="M122.192 163.393C122.098 163.465 122.002 163.537 121.908 163.612C120.636 164.586 119.446 165.661 118.348 166.827C118.262 166.915 118.176 167.006 118.093 167.098L118.091 167.1C115.488 169.926 113.43 173.208 112.02 176.782L112.012 176.806C112.009 176.814 112.007 176.819 112.004 176.828C111.445 178.258 110.995 179.728 110.656 181.226C110.33 182.689 110.062 184.256 109.55 185.665C109.472 185.882 109.387 186.097 109.296 186.303H97.385C97.4252 186.091 97.468 185.877 97.5109 185.665C98.1168 182.561 99.0637 179.533 100.335 176.637C100.377 176.541 100.42 176.444 100.468 176.348C101.124 174.917 101.896 173.542 102.775 172.236L102.775 172.235L102.776 172.234L102.777 172.233L102.778 172.233C103.26 171.521 103.779 170.833 104.332 170.173C105.764 168.468 107.457 167 109.347 165.822C109.357 165.814 109.371 165.809 109.381 165.801C113.143 163.468 117.6 162.356 121.863 163.318H121.865C121.975 163.342 122.082 163.366 122.192 163.393Z" fill="#E6E6E6"/>
<path d="M122.179 163.535C122.088 163.559 121.997 163.585 121.908 163.612C120.031 164.149 118.218 164.892 116.505 165.828C116.419 165.873 116.333 165.921 116.248 165.97C113.879 167.291 111.729 168.971 109.874 170.95C109.873 170.951 109.872 170.953 109.872 170.955C109.85 170.977 109.826 171.001 109.807 171.022C109.379 171.483 108.966 171.963 108.575 172.455C107.81 173.375 107.193 174.408 106.748 175.517C106.408 176.442 106.287 177.434 106.397 178.413C106.405 178.513 106.418 178.609 106.432 178.708C106.443 178.786 106.453 178.863 106.467 178.944C106.644 180.018 106.949 181.095 106.863 182.191C106.811 182.752 106.641 183.296 106.363 183.787C106.086 184.278 105.707 184.704 105.253 185.038C104.944 185.277 104.614 185.487 104.267 185.665C103.771 185.921 103.254 186.134 102.722 186.303H101.669C101.811 186.263 101.95 186.223 102.092 186.182C102.596 186.04 103.091 185.868 103.573 185.665C103.849 185.55 104.118 185.418 104.377 185.269C105.454 184.65 106.352 183.702 106.539 182.435C106.702 181.325 106.386 180.216 106.199 179.131C106.167 178.944 106.137 178.759 106.121 178.574C105.993 177.635 106.071 176.679 106.349 175.772C106.734 174.641 107.311 173.585 108.053 172.648C108.512 172.039 109.002 171.453 109.521 170.894C109.585 170.821 109.652 170.749 109.722 170.677C111.616 168.684 113.803 166.992 116.207 165.659H116.21C117.998 164.664 119.895 163.878 121.863 163.318H121.865C121.954 163.291 122.045 163.264 122.133 163.24C122.318 163.192 122.361 163.484 122.179 163.535Z" fill="white"/>
<path d="M109.615 170.995C108.968 170.312 108.585 169.421 108.534 168.482C108.484 167.542 108.768 166.615 109.338 165.866C109.454 165.715 109.694 165.888 109.578 166.039C109.046 166.736 108.781 167.599 108.83 168.474C108.879 169.349 109.24 170.177 109.846 170.81C109.978 170.947 109.746 171.132 109.615 170.995Z" fill="white"/>
<path d="M106.304 178.412C108.226 178.481 110.104 177.823 111.563 176.57C111.707 176.445 111.892 176.676 111.748 176.8C110.228 178.102 108.272 178.782 106.272 178.706C106.082 178.698 106.114 178.404 106.304 178.412Z" fill="white"/>
<path d="M116.454 165.75C116.65 166.067 116.921 166.33 117.243 166.516C117.565 166.702 117.928 166.805 118.3 166.816C118.49 166.821 118.457 167.115 118.268 167.11C117.857 167.096 117.456 166.982 117.1 166.777C116.744 166.572 116.443 166.284 116.224 165.936C116.201 165.905 116.19 165.866 116.194 165.827C116.198 165.789 116.217 165.753 116.246 165.728C116.277 165.704 116.316 165.692 116.355 165.696C116.394 165.701 116.43 165.72 116.454 165.75Z" fill="white"/>
<path d="M118.427 109.167C120.203 109.167 121.642 107.728 121.642 105.952C121.642 104.177 120.203 102.738 118.427 102.738C116.652 102.738 115.212 104.177 115.212 105.952C115.212 107.728 116.652 109.167 118.427 109.167Z" fill="#F2F2F2"/>
<path d="M158.363 70.6595C160.138 70.6595 161.577 69.2202 161.577 67.4447C161.577 65.6693 160.138 64.23 158.363 64.23C156.587 64.23 155.148 65.6693 155.148 67.4447C155.148 69.2202 156.587 70.6595 158.363 70.6595Z" fill="#F2F2F2"/>
<path d="M47.9913 6.42954C49.7668 6.42954 51.2061 4.99025 51.2061 3.2148C51.2061 1.43935 49.7668 6.10352e-05 47.9913 6.10352e-05C46.2159 6.10352e-05 44.7766 1.43935 44.7766 3.2148C44.7766 4.99025 46.2159 6.42954 47.9913 6.42954Z" fill="#F2F2F2"/>
<path d="M0.334067 186.815H200.259C200.347 186.815 200.432 186.78 200.495 186.717C200.558 186.655 200.593 186.57 200.593 186.481C200.593 186.392 200.558 186.307 200.495 186.245C200.432 186.182 200.347 186.147 200.259 186.147H0.334067C0.245468 186.147 0.160498 186.182 0.0978485 186.245C0.0351992 186.307 0 186.392 0 186.481C0 186.57 0.0351992 186.655 0.0978485 186.717C0.160498 186.78 0.245468 186.815 0.334067 186.815Z" fill="#CCCCCC"/>
<path opacity="0.2" d="M122.426 33.9847C123.891 36.4882 124.417 39.4312 123.909 42.2869C123.402 45.1426 121.895 47.7246 119.658 49.5707C117.421 51.4169 114.6 52.4067 111.7 52.363C108.8 52.3193 106.01 51.2449 103.83 49.3322C104.723 50.8609 105.937 52.1773 107.389 53.1903C108.84 54.2033 110.495 54.8886 112.238 55.1989C113.98 55.5091 115.77 55.4369 117.482 54.9871C119.194 54.5373 120.788 53.7207 122.153 52.594C123.519 51.4672 124.623 50.0571 125.389 48.4614C126.155 46.8657 126.566 45.1225 126.592 43.3525C126.618 41.5825 126.259 39.8279 125.54 38.2104C124.82 36.5929 123.758 35.151 122.426 33.9847Z" fill="#231F20"/>
<path opacity="0.2" d="M137.423 17.3226C147.451 30.2876 149.18 48.9207 138.07 61.4422C125.656 75.4323 89.1495 78.486 63.9988 102.649C64.4175 105.169 65.022 107.655 65.8074 110.085C90.9706 83.5061 129.629 80.7442 142.477 66.2643C155.059 52.0855 151.176 30.0706 137.423 17.3226Z" fill="#231F20"/>
</g>
<defs>
<clipPath id="clip0_67_327">
<rect width="200.593" height="187.132" fill="white"/>
</clipPath>
</defs>
</svg>
