<svg width="201" height="155" viewBox="0 0 201 155" fill="none" xmlns="http://www.w3.org/2000/svg">
<g clip-path="url(#clip0_67_598)">
<path d="M60.2328 74.4099C60.8781 74.7725 61.9196 73.3381 62.1556 74.0398C62.3916 74.7414 61.82 77.5723 61.5251 78.2513C61.3785 78.5887 61.1712 78.8974 61.0274 79.2361C60.8836 79.5747 60.8064 79.9641 60.9336 80.3094C61.1548 80.9103 61.8851 81.1547 62.2471 81.6828C62.6688 82.2979 62.4985 83.1264 62.3014 83.8456C62.1315 84.4656 61.9504 85.0911 61.6233 85.6445C61.2962 86.1979 60.8031 86.6797 60.1869 86.8628C59.4024 87.0959 58.5639 86.8189 57.8076 86.5061C57.0804 86.2054 56.3611 85.8645 55.7426 85.3781C55.1242 84.8916 54.6082 84.2458 54.392 83.4893C54.1208 82.5402 54.3474 81.5016 54.8169 80.6335C55.2864 79.7653 55.981 79.042 56.6936 78.3591C57.8939 77.209 59.1713 76.1394 60.5143 75.1597" fill="#2F2E41"/>
<path d="M173.567 32.92C177.583 32.92 180.839 29.6642 180.839 25.648C180.839 21.6318 177.583 18.376 173.567 18.376C169.551 18.376 166.295 21.6318 166.295 25.648C166.295 29.6642 169.551 32.92 173.567 32.92Z" fill="#FF6884"/>
<path d="M138.061 129.304C138.019 129.652 138.008 129.976 138.031 130.294H155.521C155.68 129.976 155.816 129.646 155.934 129.304C158.072 123.16 154.555 112.934 159.015 97.7704C162.325 86.5188 168.505 77.7178 171.385 73.6177C174.926 68.5751 178.938 63.9213 183.586 56.487C184.593 54.8787 185.63 53.135 186.702 51.2323C187.061 50.5961 191.202 43.2148 190.825 42.985C190.649 42.879 189.553 44.3694 189.182 44.8701C185.907 49.3 184.004 51.2382 181.276 54.4251C179.621 56.3574 177.665 58.7432 174.92 62.425C167.88 71.8563 164.363 76.5691 163.138 80.0977C162.814 81.0402 161.088 86.1418 157.836 92.4686C156.175 95.6968 155.345 97.3109 154.891 97.1813C153.607 96.8102 155.339 83.4437 160.782 70.0832C161.713 67.8093 162.408 66.3542 163.727 63.6032C165.872 59.1143 177.812 34.1663 186.59 19.2329C187.691 17.3537 188.746 15.6394 189.718 14.1372C189.906 13.8545 190.089 13.5776 190.266 13.3125C191.491 11.4863 192.575 10.043 193.476 9.11229C193.953 8.61744 195.167 7.2154 197.6 4.39957C198.566 3.28028 199.273 2.44968 199.75 1.8429C199.821 1.75456 199.886 1.66618 199.939 1.58959C200.516 0.835577 200.681 0.470307 200.545 0.275933C200.351 -0.000957936 199.603 0.158109 198.784 0.446756C198.696 0.476205 198.601 0.511548 198.513 0.546891C197.624 0.876781 196.722 1.30684 196.422 1.45411C193.665 2.77957 190.973 5.15358 188.481 7.97535C187.556 9.01802 186.666 10.1196 185.806 11.2507C183.038 14.903 180.622 18.8794 178.796 22.1489C176.558 26.1782 175.215 29.1414 175.215 29.1414C168.964 42.9438 162.031 58.7314 161.665 58.5959C161.265 58.4486 168.952 38.7966 171.191 28.1222C171.939 24.5465 172.075 21.978 171.091 21.4832C171.056 21.4655 171.02 21.4479 170.979 21.4361C170.826 21.383 170.684 21.3889 170.608 21.3948C170.608 21.3948 169.695 21.277 168.735 21.4832C167.539 21.7424 166.178 25.0707 164.852 29.7422C161.406 41.7832 158.131 62.7195 158.131 62.7195C154.856 83.6617 149.884 100.61 148.705 100.421C148.052 100.315 148.988 95.0547 148.116 86.2832C147.504 80.1331 146.809 80.3216 144.582 69.1995C141.047 51.5563 139.28 42.7376 139.28 42.6905C139.298 42.3193 139.345 41.5712 139.233 40.7936C139.115 39.9512 138.815 39.0675 138.102 38.5668C137.018 37.801 135.274 38.1309 134.567 38.5668C134.002 38.9203 133.713 39.5683 133.648 40.499C133.26 46.3546 141.672 63.3322 144.582 86.2832C146.031 97.7174 146.826 103.956 144.582 112.203C142.361 120.38 138.491 125.587 138.061 129.304Z" fill="#F2F2F2"/>
<path d="M133.415 94.1432C133.223 93.819 132.391 94.1661 132.238 93.8719C132.086 93.5788 132.858 93.1322 133.3 92.1119C133.38 91.9279 133.881 90.7684 133.51 90.4106C132.806 89.7324 129.584 92.5311 128.457 91.6152C128.21 91.4142 128.037 91.013 127.288 90.3616C126.99 90.1024 126.81 89.9854 126.636 90.0289C126.388 90.0907 126.369 90.4217 126.103 91.0727C125.706 92.0489 125.47 91.9899 125.239 92.7688C125.067 93.347 125.106 93.6831 124.903 93.7486C124.617 93.8413 124.353 93.228 123.99 93.2829C123.62 93.339 123.396 94.053 123.325 94.5876C123.192 95.5909 123.561 96.2529 123.765 96.949C123.987 97.7055 124.118 98.8559 123.606 100.485L118.533 114.776C119.653 111.844 122.896 103.805 124.258 100.817C124.652 99.9548 125.086 99.0801 125.978 98.7349C126.836 98.4025 128.015 98.6009 129.518 98.2388C129.694 98.1965 130.181 98.0726 130.242 97.786C130.293 97.5491 130.007 97.4169 130.051 97.195C130.11 96.8974 130.673 96.8938 131.366 96.5504C131.854 96.3083 132.158 96.0204 132.42 95.7728C132.499 95.6981 133.671 94.5747 133.415 94.1432Z" fill="#F2F2F2"/>
<path d="M113.458 101.667C113.244 101.668 113.174 102.176 112.985 102.166C112.798 102.156 112.801 101.648 112.428 101.137C112.361 101.045 111.936 100.464 111.654 100.543C111.118 100.693 111.562 103.082 110.787 103.371C110.617 103.434 110.37 103.403 109.834 103.583C109.621 103.654 109.512 103.709 109.483 103.807C109.442 103.946 109.599 104.052 109.842 104.37C110.206 104.846 110.109 104.945 110.424 105.283C110.659 105.535 110.835 105.612 110.809 105.731C110.771 105.898 110.394 105.85 110.317 106.044C110.237 106.242 110.523 106.558 110.765 106.747C111.219 107.102 111.65 107.112 112.051 107.213C112.486 107.322 113.089 107.59 113.74 108.311L119.291 114.924C118.175 113.528 115.165 109.617 114.092 108.087C113.782 107.645 113.478 107.179 113.566 106.642C113.65 106.125 114.088 105.603 114.344 104.761C114.374 104.663 114.454 104.388 114.331 104.275C114.229 104.182 114.082 104.284 113.985 104.199C113.856 104.084 114.017 103.806 114.048 103.367C114.07 103.058 114.017 102.825 113.971 102.626C113.957 102.565 113.744 101.666 113.458 101.667Z" fill="#F2F2F2"/>
<path d="M117.739 102.628L117.61 101.474L117.669 101.386C117.942 100.982 118.081 100.587 118.083 100.212C118.083 100.152 118.08 100.093 118.078 100.032C118.067 99.7911 118.053 99.4918 118.209 99.143C118.296 98.9486 118.542 98.4983 118.911 98.554C119.011 98.568 119.086 98.6137 119.143 98.6672C119.151 98.6538 119.16 98.6404 119.169 98.6259C119.284 98.4504 119.375 98.3752 119.463 98.3027C119.531 98.247 119.6 98.1896 119.71 98.0537C119.757 97.994 119.795 97.9417 119.826 97.8976C119.922 97.7645 120.047 97.6056 120.267 97.6084C120.502 97.6196 120.625 97.8141 120.707 97.9428C120.852 98.1723 120.918 98.3378 120.962 98.4476C120.978 98.4877 120.996 98.5329 121.005 98.5468C121.081 98.6582 121.697 98.554 121.929 98.5161C122.45 98.4292 122.902 98.354 123.087 98.6828C123.221 98.9179 123.122 99.2288 122.785 99.6317C122.679 99.7571 122.568 99.8524 122.469 99.927C122.551 99.9761 122.624 100.051 122.654 100.169C122.724 100.449 122.484 100.729 121.94 101.004C121.805 101.072 121.623 101.164 121.368 101.208C121.248 101.228 121.14 101.233 121.047 101.236C121.045 101.289 121.033 101.347 121 101.407C120.904 101.583 120.706 101.666 120.406 101.646C120.076 101.629 119.804 101.566 119.565 101.511C119.355 101.463 119.175 101.422 119.034 101.432C118.771 101.453 118.569 101.663 118.331 101.935L117.739 102.628Z" fill="#F2F2F2"/>
<path d="M118.339 95.7568L117.255 96.1746L117.156 96.1397C116.695 95.9779 116.277 95.9434 115.914 96.0369C115.857 96.0517 115.8 96.0695 115.742 96.0876C115.512 96.1595 115.226 96.2488 114.849 96.1864C114.638 96.1511 114.14 96.0276 114.101 95.6561C114.089 95.5564 114.114 95.472 114.151 95.4032C114.136 95.3985 114.121 95.3936 114.105 95.3883C113.906 95.3216 113.81 95.2525 113.718 95.186C113.647 95.1349 113.573 95.0821 113.414 95.0109C113.344 94.9797 113.284 94.9569 113.234 94.9376C113.081 94.8789 112.895 94.7985 112.842 94.5849C112.793 94.3546 112.95 94.1861 113.054 94.0745C113.239 93.8753 113.382 93.7695 113.478 93.6993C113.512 93.6738 113.551 93.6448 113.563 93.6324C113.651 93.5308 113.394 92.9614 113.299 92.7465C113.082 92.2643 112.895 91.8471 113.166 91.5839C113.36 91.3955 113.685 91.4123 114.161 91.6362C114.309 91.706 114.429 91.7899 114.526 91.8669C114.553 91.775 114.607 91.6847 114.714 91.6259C114.967 91.4871 115.299 91.6485 115.702 92.1053C115.803 92.2187 115.937 92.3715 116.044 92.6069C116.095 92.7178 116.127 92.8211 116.153 92.9099C116.205 92.8982 116.265 92.8956 116.331 92.912C116.525 92.9599 116.656 93.1312 116.713 93.4262C116.78 93.7497 116.788 94.0284 116.795 94.2742C116.802 94.4888 116.808 94.6734 116.853 94.8079C116.94 95.0564 117.195 95.1988 117.518 95.3593L118.339 95.7568Z" fill="#F2F2F2"/>
<path d="M117.739 92.3571L117.61 91.2031L117.669 91.1157C117.942 90.7111 118.081 90.316 118.083 89.941C118.083 89.8814 118.08 89.8218 118.078 89.761C118.067 89.5203 118.053 89.2211 118.209 88.8723C118.296 88.6778 118.542 88.2276 118.911 88.2833C119.011 88.2972 119.086 88.3429 119.143 88.3964C119.151 88.383 119.16 88.3697 119.169 88.3552C119.284 88.1796 119.375 88.1044 119.463 88.032C119.531 87.9763 119.6 87.9189 119.71 87.7829C119.757 87.7233 119.795 87.6709 119.826 87.6269C119.922 87.4937 120.047 87.3349 120.267 87.3377C120.502 87.3488 120.625 87.5433 120.707 87.672C120.852 87.9016 120.918 88.0671 120.962 88.1769C120.978 88.217 120.996 88.2621 121.005 88.276C121.081 88.3875 121.697 88.2833 121.929 88.2454C122.45 88.1585 122.902 88.0832 123.087 88.412C123.221 88.6471 123.122 88.9581 122.785 89.361C122.679 89.4863 122.568 89.5816 122.469 89.6563C122.551 89.7053 122.624 89.7805 122.654 89.8987C122.724 90.1784 122.484 90.4587 121.94 90.7328C121.805 90.8014 121.623 90.8928 121.368 90.9368C121.248 90.9574 121.14 90.9624 121.047 90.9652C121.045 91.0187 121.033 91.0767 121 91.1363C120.904 91.3118 120.706 91.3954 120.406 91.3753C120.076 91.358 119.804 91.2951 119.565 91.2399C119.355 91.192 119.175 91.1513 119.034 91.1608C118.771 91.182 118.569 91.392 118.331 91.6645L117.739 92.3571Z" fill="#F2F2F2"/>
<path d="M118.92 114.758L118.678 114.606L118.396 114.638C118.391 114.612 118.376 114.552 118.353 114.458C118.227 113.942 117.842 112.372 117.521 109.899C117.297 108.172 117.17 106.398 117.144 104.623C117.118 102.845 117.202 101.5 117.269 100.418C117.32 99.6023 117.382 98.8255 117.443 98.0688C117.605 96.0472 117.757 94.1376 117.644 92.0235C117.619 91.5515 117.566 90.5691 116.992 89.5238C116.659 88.9175 116.2 88.3792 115.629 87.9246L115.984 87.4777C116.615 87.9803 117.123 88.5765 117.492 89.2496C118.129 90.4087 118.186 91.4791 118.214 91.9934C118.329 94.1448 118.175 96.0728 118.012 98.1139C117.951 98.8679 117.89 99.6413 117.839 100.454C117.772 101.525 117.689 102.859 117.715 104.614C117.74 106.368 117.866 108.121 118.087 109.825C118.404 112.267 118.783 113.814 118.907 114.322C118.974 114.593 118.988 114.65 118.92 114.758Z" fill="#F2F2F2"/>
<path d="M114.582 88.8311C114.559 88.8311 114.535 88.8306 114.511 88.8289C114.026 88.8027 113.576 88.5118 113.174 87.9646C112.986 87.7072 112.889 87.4135 112.697 86.8279C112.667 86.7376 112.522 86.2796 112.434 85.6494C112.376 85.2376 112.384 85.0654 112.465 84.9133C112.556 84.7439 112.702 84.6257 112.867 84.5461C112.86 84.4915 112.866 84.4352 112.89 84.3778C112.987 84.1399 113.245 84.1711 113.385 84.1861C113.456 84.195 113.544 84.2067 113.64 84.2017C113.79 84.1945 113.87 84.1499 113.992 84.083C114.109 84.0189 114.254 83.9392 114.469 83.8952C114.894 83.8066 115.25 83.927 115.367 83.9665C115.984 84.1722 116.288 84.6519 116.641 85.2075C116.711 85.3189 116.952 85.7246 117.111 86.2807C117.226 86.6819 117.21 86.8602 117.175 86.9928C117.105 87.2653 116.939 87.4213 116.518 87.7657C116.078 88.1262 115.858 88.3068 115.668 88.4165C115.227 88.6712 114.95 88.8311 114.582 88.8311Z" fill="#F2F2F2"/>
<path d="M190.559 130.572C190.559 130.678 190.473 130.764 190.367 130.764H14.3118V130.381H190.367C190.473 130.381 190.559 130.467 190.559 130.572Z" fill="#E6E6E6"/>
<path d="M144.566 130.536H94.5669V121.268C94.5669 113.967 100.485 108.027 107.76 108.027H144.566V130.536Z" fill="#E6E6E6"/>
<path d="M70.3369 148.524H0V135.487C0 125.216 8.32569 116.859 18.5595 116.859H70.3369V148.524Z" fill="#E6E6E6"/>
<path d="M109.142 94.927H104.345V112.639H109.142V94.927Z" fill="#E6E6E6"/>
<path d="M144.566 94.927H139.769V112.639H144.566V94.927Z" fill="#E6E6E6"/>
<path d="M141.245 96.4032H108.404V96.7722H141.245V96.4032Z" fill="#E6E6E6"/>
<path d="M141.245 102.307H108.404V102.676H141.245V102.307Z" fill="#E6E6E6"/>
<path d="M141.245 105.259H108.404V105.628H141.245V105.259Z" fill="#E6E6E6"/>
<path d="M115.987 96.7013C114.76 96.8145 113.708 96.2735 113.636 95.493C113.564 94.7125 114.5 93.9883 115.727 93.8752C116.216 93.8234 116.711 93.8895 117.17 94.068L122.372 93.6541L122.514 96.0994L117.37 96.2479C116.952 96.5074 116.478 96.6629 115.987 96.7013Z" fill="#A0616A"/>
<path d="M135.318 86.7625C135.318 86.7625 137.438 91.0795 135.35 92.1495C133.262 93.2196 124.211 96.8618 124.211 96.8618L121.088 96.6036L121.021 93.5081L129.034 90.1133L135.318 86.7625Z" fill="#14B8A6"/>
<path d="M125.952 125.28L124.243 131.612L121.53 131.11L122.133 124.577L125.952 125.28Z" fill="#A0616A"/>
<path d="M123.841 131.21L124.846 131.411L125.651 134.125C125.651 134.125 124.344 134.627 124.344 135.632C124.344 136.637 123.841 137.341 121.831 137.24C119.821 137.14 119.62 137.24 119.62 136.436C119.62 135.632 121.128 131.411 121.128 131.411C121.128 131.411 121.027 129.702 122.233 129.803C123.439 129.903 123.841 131.21 123.841 131.21Z" fill="#2F2E41"/>
<path d="M135.14 125.182L135.023 131.739L132.269 131.912L131.264 125.428L135.14 125.182Z" fill="#A0616A"/>
<path d="M134.535 131.447L135.559 131.397L136.999 133.834C136.999 133.834 135.854 134.639 136.099 135.614C136.343 136.589 136.027 137.393 134.053 137.785C132.079 138.177 131.908 138.323 131.713 137.543C131.517 136.763 131.952 132.302 131.952 132.302C131.952 132.302 131.439 130.669 132.633 130.473C133.828 130.277 134.535 131.447 134.535 131.447Z" fill="#2F2E41"/>
<path d="M133.992 85.9821L139.42 85.5801L140.626 87.0877C140.626 87.0877 141.229 97.2388 140.827 98.2439C140.425 99.249 140.726 104.978 140.726 104.978L127.044 104.023C130.068 101.88 131.147 99.4614 130.073 96.7363L129.972 92.515L132.686 87.3892L133.992 85.9821Z" fill="#14B8A6"/>
<path d="M140.123 102.867C140.123 102.867 142.335 106.083 141.531 107.792C140.726 109.501 135.272 119.421 135.272 119.421L135.976 128.668L131.152 128.266L130.348 118.316L133.691 110.204L133.088 109.3L128.063 115.431L126.254 126.084L121.429 125.481L124.042 109.903L127.096 103.898L140.123 102.867Z" fill="#2F2E41"/>
<path d="M140.596 79.827C141.625 79.827 142.459 78.9928 142.459 77.9637C142.459 76.9346 141.625 76.1003 140.596 76.1003C139.567 76.1003 138.732 76.9346 138.732 77.9637C138.732 78.9928 139.567 79.827 140.596 79.827Z" fill="#2F2E41"/>
<path d="M136.293 84.8715C138.534 84.8715 140.351 83.0547 140.351 80.8136C140.351 78.5724 138.534 76.7556 136.293 76.7556C134.051 76.7556 132.235 78.5724 132.235 80.8136C132.235 83.0547 134.051 84.8715 136.293 84.8715Z" fill="#A0616A"/>
<path d="M137.579 85.2623C138.011 85.4908 139.224 84.652 139.658 83.528C139.938 82.805 140.617 82.9253 141.05 82.0235C141.303 81.4981 140.549 80.9841 140.673 80.5298C140.898 79.7067 140.616 78.9703 140.58 78.88C140.269 78.1012 139.811 78.1194 139.442 77.2129C139.219 76.6671 139.362 76.6032 139.175 76.324C138.636 75.5183 137.071 75.4876 135.967 75.8687C135.585 76.0005 134.665 75.294 133.918 75.8058C133.038 76.4089 132.452 78.1472 132.587 78.4657C132.669 78.6593 133.124 78.4621 134.072 78.611C134.949 78.7489 133.791 79.4044 134.779 79.6278C135.946 79.892 136.298 79.6509 136.621 80.0202C136.963 80.4107 137.027 81.2009 136.714 81.67C136.56 81.9028 136.36 81.985 136.385 82.147C136.431 82.4427 136.693 82.282 136.78 82.5957C136.88 82.9607 136.048 83.4392 136.12 83.5496C136.135 83.5718 136.197 83.5959 137.009 83.283C137.334 83.158 137.459 83.0501 137.495 83.09C137.554 83.1547 137.845 83.8027 137.514 84.0783C136.999 84.5073 137.356 84.6776 137.121 85.0135C136.878 85.36 137.305 85.1171 137.579 85.2623Z" fill="#2F2E41"/>
<path d="M136.629 108.709C135.981 109.756 134.916 110.271 134.249 109.859C133.583 109.447 133.567 108.263 134.215 107.216C134.469 106.793 134.819 106.438 135.238 106.179L138.038 101.775L140.076 103.133L137.1 107.331C137.055 107.821 136.894 108.293 136.629 108.709Z" fill="#A0616A"/>
<path d="M140.324 87.2886C140.324 87.2886 145.048 88.1931 144.646 90.5048C144.244 92.8164 141.706 102.237 141.706 102.237L139.621 104.576L137.108 102.767L139.219 94.324L140.324 87.2886Z" fill="#14B8A6"/>
<path d="M68.7538 83.7224C68.8836 82.361 68.2863 81.1904 67.4198 81.108C66.5534 81.0255 65.746 82.0623 65.6164 83.4243C65.5572 83.9676 65.6289 84.5173 65.8256 85.0272L65.3486 90.8027L68.0637 90.9688L68.2457 85.2575C68.5352 84.7937 68.7095 84.2674 68.7538 83.7224Z" fill="#FFB6B6"/>
<path d="M53.9614 86.4623C53.9614 86.4623 58.3971 83.8531 59.3103 84.2445C60.2236 84.6359 64.6593 91.2894 64.6593 91.2894L65.0671 90.0752L68.1817 90.3762C68.1817 90.3762 70.0082 98.8561 65.9639 98.0734C61.9196 97.2906 55.266 89.9848 55.266 89.9848L53.9614 86.4623Z" fill="#14B8A6"/>
<path d="M76.0624 85.721L69.8003 86.3733V87.721L66.7344 87.931L64.7123 88.0693L61.7117 85.1992V81.0649L65.4951 79.7198L66.7344 79.5476L70.1917 79.0675C70.6222 79.4263 70.6761 80.0679 70.3113 80.4934L70.1917 80.633L75.0187 79.8503C75.0187 79.8503 77.367 81.9377 76.0624 85.721Z" fill="#3F3D56"/>
<path d="M66.7344 79.5475V87.9309L64.7123 88.0692L61.7117 85.1991V81.0648L65.495 79.7197L66.7344 79.5475Z" fill="#2F2E41"/>
<path d="M67.8228 79.5216C68.2523 79.4722 68.5805 79.2582 68.5558 79.0434C68.5311 78.8287 68.1629 78.6946 67.7335 78.7439C67.304 78.7933 66.9758 79.0073 67.0005 79.2221C67.0251 79.4368 67.3933 79.5709 67.8228 79.5216Z" fill="#3F3D56"/>
<path d="M64.2383 108.479L81.4592 115.002C81.4592 115.002 82.8943 116.438 83.1552 118.916C83.4161 121.395 88.2432 135.485 88.2432 135.485L84.0684 137.05C84.0684 137.05 77.0235 126.222 77.4149 121.786C77.4149 121.786 76.6321 119.695 76.2407 119.632C75.8493 119.569 69.9786 116.568 66.1952 116.959C62.4118 117.351 52.4967 118.525 52.2358 113.959C51.9749 109.393 54.2631 109.393 54.2631 109.393L64.2383 108.479Z" fill="#2F2E41"/>
<path d="M87.3298 134.311C87.3298 134.311 88.504 133.919 89.2867 134.702C90.0695 135.485 90.0695 136.137 90.0695 136.137C90.0695 136.137 96.2012 136.007 96.4621 136.79C96.7231 137.572 95.8098 140.703 93.592 140.834C91.3741 140.964 83.8074 142.53 83.8074 141.095C83.8074 139.66 83.9378 136.398 84.4597 136.398C84.9815 136.398 87.3298 134.311 87.3298 134.311Z" fill="#2F2E41"/>
<path d="M65.7258 112.629L78.2771 126.104C78.2771 126.104 78.9283 128.026 78.0645 130.364C77.2007 132.702 75.2887 147.472 75.2887 147.472L70.8524 147.027C70.8524 147.027 69.3314 134.199 71.6467 130.395C71.6467 130.395 71.8711 128.173 71.5482 127.943C71.2252 127.713 67.2904 122.423 63.7249 121.098C60.1595 119.774 50.7497 116.435 52.538 112.226C54.3262 108.016 56.3778 109.03 56.3778 109.03L65.7258 112.629Z" fill="#2F2E41"/>
<path d="M74.9898 146.015C74.9898 146.015 76.2159 146.184 76.571 147.233C76.9262 148.281 76.6373 148.866 76.6373 148.866C76.6373 148.866 82.1927 151.465 82.08 152.282C81.9673 153.099 79.7619 155.502 77.7156 154.637C75.6693 153.772 68.1917 151.824 68.8273 150.538C69.4628 149.251 71.0242 146.384 71.492 146.616C71.9599 146.847 74.9898 146.015 74.9898 146.015Z" fill="#2F2E41"/>
<path d="M54.258 84.9312L58.4327 87.6708L63.1293 94.8462C63.1293 94.8462 64.173 102.413 63.7816 102.804C63.3903 103.196 63.5207 103.587 63.5207 104.37C63.5207 105.153 64.4791 105.236 63.8695 105.912C63.2598 106.588 62.7482 106.728 63.6563 106.984C64.5644 107.24 65.6194 106.99 65.0919 107.768C64.5644 108.545 64.9558 108.806 64.6949 109.067C64.4339 109.327 53.872 120.482 51.9151 116.177C49.9582 111.872 49.8223 95.3681 49.8223 95.3681L51.232 89.9918L54.258 84.9312Z" fill="#14B8A6"/>
<path d="M41.395 115.667C40.9508 117.169 41.3658 118.616 42.3218 118.899C43.2778 119.181 44.4126 118.192 44.8568 116.69C45.0425 116.092 45.0823 115.458 44.9728 114.842L46.7746 108.453L43.7587 107.672L42.3026 114.053C41.8755 114.511 41.5643 115.064 41.395 115.667Z" fill="#FFB6B6"/>
<path d="M58.5716 94.0036C58.5716 94.0036 53.7091 90.2916 51.8582 92.6326C50.0072 94.9736 43.2266 105.366 43.2266 105.366L42.7771 109.327L46.6226 110.175L52.8382 101.017L58.5716 94.0036Z" fill="#14B8A6"/>
<path d="M58.6209 83.8179C61.207 83.8179 63.3034 81.7215 63.3034 79.1355C63.3034 76.5494 61.207 74.453 58.6209 74.453C56.0349 74.453 53.9385 76.5494 53.9385 79.1355C53.9385 81.7215 56.0349 83.8179 58.6209 83.8179Z" fill="#FFB6B6"/>
<path d="M53.3424 86.4688C54.4353 88.0278 54.9942 89.954 54.9055 91.8558C56.1447 91.2556 56.981 89.9874 57.2656 88.6403C57.5503 87.2932 57.3331 85.8787 56.8757 84.58L56.8619 84.5411C56.1674 82.5918 56.8127 80.4132 58.4901 79.2015C59.6216 78.3841 60.6029 77.3587 61.3561 76.1833C61.7813 75.5198 62.1427 74.6874 61.825 73.9661C61.5323 73.3015 60.7762 72.9909 60.0804 72.783C58.4915 72.3084 56.8033 72.0384 55.1725 72.3387C53.5417 72.639 51.9717 73.5769 51.201 75.0451C50.4302 76.5133 50.6321 78.5171 51.8832 79.6055C51.4886 79.7331 51.2094 80.1513 51.2429 80.5647C51.2764 80.978 51.6193 81.3458 52.0293 81.4081C51.7618 81.3986 51.6039 81.7509 51.6993 82.001C51.7947 82.251 52.0407 82.4064 52.2754 82.5351C52.6096 82.7184 52.9801 82.9102 52.9816 83.3903C52.9821 83.5828 52.9135 83.7697 52.8013 83.9261C52.5295 84.3053 52.0907 84.4761 51.6682 84.6364C52.5617 84.8995 53.2742 85.6981 53.4342 86.6157" fill="#2F2E41"/>
</g>
<defs>
<clipPath id="clip0_67_598">
<rect width="200.59" height="154.69" fill="white" transform="translate(0 0.13208)"/>
</clipPath>
</defs>
</svg>
