<svg width="440" height="253" viewBox="0 0 440 253" fill="none" xmlns="http://www.w3.org/2000/svg">
<path d="M89.1657 178.273C87.3822 178.465 85.4365 178.753 83.3668 179.174C74.5913 180.961 74.4092 186.92 74.4861 188.286L74.4264 188.249C73.5441 189.665 72.9914 191.097 72.6574 192.449L72.2555 174.186C72.5154 173.644 72.7518 173.03 72.9489 172.4C73.6058 174.423 74.6826 176.334 75.6109 176.208C76.8178 176.043 77.3441 172.491 77.1189 169.968C78.6538 171.944 81.2369 174.058 82.2113 173.406C82.99 172.886 82.5283 170.741 81.6782 168.792C83.4495 169.859 85.4113 170.56 86.0201 169.883C86.8508 168.958 84.8602 165.803 83.0245 164.041C85.4818 164.27 88.607 163.879 88.8119 162.761C88.9807 161.839 87.1207 160.676 85.1299 159.928C87.1295 159.401 88.9995 158.482 88.9374 157.573C88.8638 156.493 86.0876 155.77 83.6926 155.66C85.499 154.247 87.1589 152.293 86.6513 151.409C86.1846 150.597 84.0138 150.912 82.0108 151.627C83.1961 149.933 84.0295 148.023 83.3948 147.37C82.6043 146.556 79.7985 147.961 77.8837 149.514C78.2565 147.094 78.068 144.04 76.9828 143.764C76.075 143.533 74.7883 145.309 73.9061 147.245C73.5163 145.214 72.727 143.285 71.816 143.285C70.5184 143.285 69.4664 147.198 69.4664 149.747C69.4664 149.891 69.4702 150.027 69.4768 150.156C69.3466 150.005 69.1973 149.848 69.0271 149.682C67.1984 147.906 63.6588 145.935 62.7547 146.866C62.1201 147.52 62.9534 149.429 64.1387 151.124C62.1358 150.408 59.9649 150.094 59.4983 150.906C58.8712 151.997 61.5515 154.722 63.7301 156.043C63.5991 156.028 63.4616 156.014 63.3151 156.004C60.772 155.831 56.797 156.614 56.7086 157.909C56.6466 158.818 58.5165 159.736 60.5162 160.264C58.5253 161.012 56.6653 162.175 56.8342 163.096C57.0391 164.215 60.1643 164.606 62.6216 164.377C60.7858 166.138 58.7952 169.293 59.626 170.218C60.2347 170.896 62.1965 170.194 63.9679 169.127C63.1178 171.077 62.6561 173.221 63.4347 173.742C64.4638 174.43 67.286 172.035 68.774 169.973C68.6223 172.495 69.2258 175.96 70.4232 176.097C70.9239 176.154 71.4545 175.62 71.9333 174.798L70.5771 194.428C70.2601 196.714 72.2879 198.206 72.4692 199.148L72.7617 212.441C72.4315 211.494 71.9869 210.525 71.3875 209.564L71.3278 209.601C71.4047 208.235 71.2225 202.276 62.4471 200.489C60.3774 200.068 58.4317 199.78 56.6482 199.588C54.5429 199.361 53.7216 202.243 55.6235 203.174C58.3779 204.522 60.9689 206.221 62.3193 208.232C65.772 213.374 70.5426 210.402 71.2208 209.94C71.9784 211.201 72.4752 212.472 72.789 213.681L72.9443 220.741C72.9063 220.907 72.8799 221.001 72.8779 221.008L72.9507 221.029L73.3266 238.114L76.814 238.086L75.5666 220.623C75.7762 219.681 76.4211 216.472 75.5666 213.139L74.3192 199.418C74.3161 199.407 74.39 199.778 74.3192 199.418L72.6921 194.026C72.9287 192.358 73.4778 190.482 74.593 188.626C75.2713 189.087 80.0419 192.06 83.4946 186.917C84.845 184.906 87.436 183.207 90.1904 181.859C92.0923 180.929 91.271 178.047 89.1657 178.273ZM73.235 218.695L73.1692 215.707C73.3018 216.837 73.2951 217.857 73.235 218.695Z" fill="#F2F2F2"/>
<path d="M356.057 178.273C354.273 178.465 352.328 178.753 350.258 179.174C341.482 180.961 341.3 186.92 341.377 188.286L341.318 188.249C340.435 189.665 339.882 191.097 339.548 192.449L339.147 174.186C339.406 173.644 339.643 173.03 339.84 172.4C340.497 174.423 341.574 176.334 342.502 176.208C343.709 176.043 344.235 172.491 344.01 169.968C345.545 171.944 348.128 174.058 349.102 173.406C349.881 172.886 349.419 170.741 348.569 168.792C350.341 169.859 352.302 170.56 352.911 169.883C353.742 168.958 351.751 165.803 349.916 164.041C352.373 164.27 355.498 163.879 355.703 162.761C355.872 161.839 354.012 160.676 352.021 159.928C354.021 159.401 355.891 158.482 355.829 157.573C355.755 156.493 352.979 155.77 350.584 155.66C352.39 154.247 354.05 152.293 353.542 151.409C353.076 150.597 350.905 150.912 348.902 151.627C350.087 149.933 350.921 148.023 350.286 147.37C349.495 146.556 346.69 147.961 344.775 149.514C345.148 147.094 344.959 144.04 343.874 143.764C342.966 143.533 341.679 145.309 340.797 147.245C340.407 145.214 339.618 143.285 338.707 143.285C337.409 143.285 336.357 147.198 336.357 149.747C336.357 149.891 336.361 150.027 336.368 150.156C336.238 150.005 336.088 149.848 335.918 149.682C334.09 147.906 330.55 145.935 329.646 146.866C329.011 147.52 329.845 149.429 331.03 151.124C329.027 150.408 326.856 150.094 326.389 150.906C325.762 151.997 328.443 154.722 330.621 156.043C330.49 156.028 330.353 156.014 330.206 156.004C327.663 155.831 323.688 156.614 323.6 157.909C323.538 158.818 325.408 159.736 327.407 160.264C325.416 161.012 323.556 162.175 323.725 163.096C323.93 164.215 327.055 164.606 329.513 164.377C327.677 166.138 325.686 169.293 326.517 170.218C327.126 170.896 329.088 170.194 330.859 169.127C330.009 171.077 329.547 173.221 330.326 173.742C331.355 174.43 334.177 172.035 335.665 169.973C335.513 172.495 336.117 175.96 337.314 176.097C337.815 176.154 338.346 175.62 338.824 174.798L337.468 194.428C337.151 196.714 339.179 198.206 339.36 199.148L339.653 212.441C339.323 211.494 338.878 210.525 338.279 209.564L338.219 209.601C338.296 208.235 338.114 202.276 329.338 200.489C327.269 200.068 325.323 199.78 323.539 199.588C321.434 199.361 320.613 202.243 322.515 203.174C325.269 204.522 327.86 206.221 329.21 208.232C332.663 213.374 337.434 210.402 338.112 209.94C338.87 211.201 339.366 212.472 339.68 213.681L339.835 220.741C339.797 220.907 339.771 221.001 339.769 221.008L339.842 221.029L340.218 238.114L343.705 238.086L342.458 220.623C342.667 219.681 343.312 216.472 342.458 213.139L341.21 199.418C341.207 199.407 341.281 199.778 341.21 199.418L339.583 194.026C339.82 192.358 340.369 190.482 341.484 188.626C342.162 189.087 346.933 192.06 350.386 186.917C351.736 184.906 354.327 183.207 357.081 181.859C358.983 180.929 358.162 178.047 356.057 178.273ZM340.126 218.695L340.06 215.707C340.193 216.837 340.186 217.857 340.126 218.695Z" fill="#F2F2F2"/>
<path d="M301.912 122.362L300.277 83.3761C300.277 83.3761 298.44 60.2309 296.97 52.1485C295.501 44.066 285.581 46.2703 285.581 46.2703L286.684 69.4155L291.439 93.1016L295.14 125.355C294.95 126.288 294.842 127.303 294.842 128.367C294.842 132.886 296.728 136.549 299.056 136.549C301.384 136.549 303.271 132.886 303.271 128.367C303.271 125.99 302.746 123.857 301.912 122.362Z" fill="#FFB6B6"/>
<path d="M222.309 112.26C224.048 110.189 226.131 108.782 228.001 108.24L249.996 83.3761C249.996 83.3761 251.833 60.2309 253.302 52.1485C254.772 44.066 264.691 46.2703 264.691 46.2703L263.589 69.4155L257.344 94.3976L231.606 116.248C231.157 117.067 230.606 117.886 229.946 118.672C226.815 122.401 222.567 123.989 220.458 122.219C218.349 120.448 219.178 115.99 222.309 112.26Z" fill="#FFB6B6"/>
<path d="M270.702 43.1475L273.254 33.3389L283.193 32.8608L286.167 46.3817L270.702 43.1475Z" fill="#FFB6B6"/>
<path opacity="0.1" d="M270.702 43.1475L273.254 33.3389L283.193 32.8608L286.167 46.3817L270.702 43.1475Z" fill="black"/>
<path d="M245.321 203.84L236.011 203.308L237.233 231.879L243.541 232.24L245.321 203.84Z" fill="#FFB6B6"/>
<path d="M236.426 222.845L239.658 224.32L239.654 226.279C239.654 226.279 240.434 224.011 244.62 223.517L245.12 225.417C245.12 225.417 246.743 227.28 246.465 230.651L245.399 239.677L242.242 239.605L241.733 233.324C241.733 233.324 240.863 231.898 236.857 238.671C236.857 238.671 232.444 239.783 225.611 237.492C224.672 237.177 224.019 236.3 224.031 235.31C224.038 234.763 224.252 234.258 224.937 234.077C226.682 233.615 228.386 234.2 229.513 232.808C230.639 231.415 236.426 222.845 236.426 222.845Z" fill="#2F2E41"/>
<path d="M295.285 203.84L285.976 203.308L287.197 231.879L293.505 232.24L295.285 203.84Z" fill="#FFB6B6"/>
<path d="M286.39 222.845L289.623 224.32L289.618 226.279C289.618 226.279 290.398 224.011 294.584 223.517L295.084 225.417C295.084 225.417 296.708 227.28 296.429 230.651L295.364 239.677L292.207 239.605L291.697 233.324C291.697 233.324 290.827 231.898 286.821 238.671C286.821 238.671 282.408 239.783 275.575 237.492C274.636 237.177 273.983 236.3 273.996 235.31C274.002 234.763 274.216 234.258 274.902 234.077C276.646 233.615 278.35 234.2 279.477 232.808C280.604 231.415 286.39 222.845 286.39 222.845Z" fill="#2F2E41"/>
<path d="M278.344 39.1153C284.431 39.1153 289.366 34.1807 289.366 28.0937C289.366 22.0067 284.431 17.0722 278.344 17.0722C272.257 17.0722 267.323 22.0067 267.323 28.0937C267.323 34.1807 272.257 39.1153 278.344 39.1153Z" fill="#FFB6B6"/>
<path d="M284.595 29.9259C284.595 29.9259 279.749 21.997 274.898 22.8722C270.048 23.7473 267.519 24.5375 267.519 24.5375C267.519 24.5375 265.544 18.2158 272.175 15.1828C272.175 15.1828 262.79 7.32511 272.793 2.28229C282.795 -2.76052 289.019 2.12678 289.019 2.12678C289.019 2.12678 297.298 9.1477 288.119 15.6453C288.119 15.6453 296.063 24.6947 288.04 33.3389C288.04 33.3389 289.456 26.7568 287.529 28.1062C285.602 29.4555 284.595 29.9259 284.595 29.9259Z" fill="#2F2E41"/>
<path d="M285.765 43.8823L270.702 42.0454L259.13 51.4137C259.13 51.4137 253.374 67.4501 257.66 77.1306C257.763 77.3625 257.844 93.4792 257.844 93.4792H289.847C289.847 93.4792 289.816 82.5093 291.039 78.5363C291.213 77.9687 291.414 77.5439 291.643 77.3143C293.48 75.4774 297.889 63.7211 295.685 58.5777C293.48 53.4343 285.765 43.8823 285.765 43.8823Z" fill="#14B8A6"/>
<path d="M257.66 92.7444L237.454 157.037L233.045 207.736H245.353L255.823 160.71L270.242 133.489L284.479 211.409H296.902L296.603 105.97L289.821 92.7444H257.66Z" fill="#2F2E41"/>
<path d="M451 238H-11V239H451V238Z" fill="#3F3D56"/>
<path d="M217.737 105.756C214.068 99.8484 205.509 98.4584 199.151 101.277C192.793 104.095 188.398 110.104 185.411 116.384C182.423 122.664 180.544 129.43 177.474 135.67C168.439 154.03 150.143 166.021 138.635 182.94C129.988 195.653 125.408 211.088 125.724 226.459C125.845 232.347 126.797 238.541 130.471 243.143C135.925 249.974 145.581 251.375 154.275 252.274C159.326 252.797 165.524 252.782 168.125 248.421C169.154 246.697 158.098 240.679 158.276 238.678C159.233 227.883 171.447 221.027 172.404 210.232C173.905 217.754 171.982 225.52 172.285 233.184C172.589 240.848 176.367 249.518 183.872 251.103C186.188 251.592 188.803 251.253 190.558 249.665C192.313 248.077 192.826 245.078 191.262 243.301C192.863 244.936 195.565 245.361 197.591 244.296C199.617 243.231 200.799 240.765 200.36 238.518C200.037 236.867 198.971 235.477 198.048 234.07C193.048 226.447 191.745 216.513 194.611 207.859C199.677 192.56 216.312 182.574 219.13 166.706C221.223 154.922 215.252 141.57 221.588 131.416C224.443 126.84 229.292 123.956 233.159 120.196C237.026 116.436 240.05 110.683 237.837 105.764L218.071 105.743" fill="#3F3D56"/>
<path d="M156.784 240.815C156.292 240.815 155.788 240.684 155.301 240.422C154.179 239.821 153.333 238.631 153.145 237.391C152.833 235.329 153.815 233.327 154.604 231.718C156.763 227.317 158.897 222.612 159.212 217.723C159.555 212.385 157.39 207.437 153.696 205.117C150.95 203.393 147.284 202.95 143.374 203.87C139.911 204.684 136.799 206.349 133.381 208.28C133.109 208.434 132.765 208.338 132.612 208.067C132.459 207.796 132.555 207.451 132.826 207.298C136.192 205.396 139.512 203.618 143.116 202.771C147.322 201.782 151.292 202.276 154.296 204.161C158.336 206.698 160.707 212.05 160.338 217.795C160.01 222.891 157.826 227.713 155.617 232.215C154.86 233.759 154.001 235.509 154.261 237.222C154.395 238.109 155.027 238.995 155.834 239.428C156.227 239.639 156.827 239.829 157.449 239.539C157.732 239.407 158.067 239.53 158.199 239.812C158.33 240.095 158.208 240.43 157.926 240.562C157.563 240.731 157.177 240.815 156.784 240.815Z" fill="#2F2E41"/>
<path d="M200.025 105.369C199.286 107.393 200.272 109.661 201.638 111.326C203.004 112.992 204.759 114.331 205.963 116.118C208.486 119.863 208.108 124.982 206.169 129.06C204.23 133.138 200.961 136.405 197.756 139.586C197.993 138.222 197.303 136.845 196.363 135.829C195.424 134.813 194.241 134.059 193.19 133.158C188.297 128.963 186.766 121.319 189.667 115.563" fill="#2F2E41"/>
<path d="M133.189 225.762C129.044 225.254 125.543 228.984 121.406 229.556C116.623 230.217 112.224 226.432 110.095 222.097C107.967 217.763 107.421 212.842 105.957 208.241C104.493 203.639 101.668 198.978 97.0657 197.516C95.1349 196.902 92.9504 196.936 91.1567 197.878C89.363 198.819 88.0484 200.742 88.0932 202.768C88.1484 205.26 90.0597 207.255 91.2176 209.463C93.06 212.976 93.0028 217.136 93.8166 221.018C95.7732 230.352 103.366 238.268 112.611 240.611C117.391 241.823 122.743 241.545 126.885 238.867C131.026 236.189 133.55 230.795 132.017 226.107" fill="#3F3D56"/>
</svg>
