<svg width="330" height="253" viewBox="0 0 330 253" fill="none" xmlns="http://www.w3.org/2000/svg">
<g clip-path="url(#clip0_43_479)">
<path d="M302.141 181.015L312.434 179.848C314.664 174.886 315.65 169.455 315.304 164.025C309.71 171.914 297.873 171.787 290.008 177.415C287.568 179.189 285.559 181.489 284.129 184.145C282.699 186.801 281.885 189.745 281.748 192.758L278.349 199.271C283.19 199.801 288.088 199.275 292.705 197.73C297.323 196.185 301.551 193.657 305.098 190.32C307.069 188.429 308.794 186.296 310.232 183.974C306.182 182.747 302.141 181.015 302.141 181.015Z" fill="#F2F2F2"/>
<path d="M294.304 166.192L302.996 160.558C302.78 155.122 301.239 149.821 298.509 145.115C297.02 154.671 286.369 159.837 281.839 168.381C280.447 171.057 279.674 174.012 279.579 177.027C279.483 180.042 280.068 183.039 281.289 185.798L281.152 193.143C285.72 191.459 289.87 188.804 293.314 185.361C296.758 181.919 299.414 177.77 301.101 173.202C302.021 170.63 302.614 167.953 302.866 165.232C298.694 165.941 294.304 166.192 294.304 166.192Z" fill="#F2F2F2"/>
<path d="M256.57 235.153C273.796 235.153 287.761 221.189 287.761 203.963C287.761 186.737 273.796 172.772 256.57 172.772C239.344 172.772 225.38 186.737 225.38 203.963C225.38 221.189 239.344 235.153 256.57 235.153Z" fill="white"/>
<path d="M256.57 235.534C250.326 235.534 244.222 233.683 239.03 230.213C233.839 226.744 229.792 221.814 227.402 216.045C225.013 210.276 224.388 203.928 225.606 197.804C226.824 191.68 229.831 186.054 234.246 181.639C238.661 177.224 244.287 174.217 250.411 172.999C256.535 171.78 262.883 172.405 268.652 174.795C274.421 177.185 279.352 181.231 282.821 186.423C286.29 191.615 288.142 197.719 288.142 203.963C288.132 212.333 284.803 220.358 278.884 226.277C272.965 232.195 264.941 235.525 256.57 235.534ZM256.57 173.153C250.477 173.153 244.52 174.96 239.454 178.346C234.387 181.731 230.438 186.543 228.106 192.173C225.774 197.802 225.164 203.997 226.353 209.974C227.542 215.95 230.476 221.44 234.785 225.749C239.094 230.058 244.583 232.992 250.56 234.181C256.536 235.369 262.731 234.759 268.361 232.427C273.991 230.095 278.802 226.146 282.188 221.08C285.573 216.013 287.38 210.056 287.38 203.963C287.371 195.794 284.122 187.963 278.346 182.187C272.57 176.412 264.739 173.163 256.57 173.153Z" fill="#3F3D56"/>
<path d="M254.235 216.428C254.169 216.428 254.102 216.426 254.036 216.423C253.448 216.395 252.874 216.239 252.352 215.968C251.83 215.697 251.373 215.316 251.012 214.852L245.8 208.151C245.47 207.728 245.228 207.244 245.086 206.727C244.943 206.211 244.904 205.671 244.971 205.139C245.037 204.607 245.208 204.094 245.473 203.628C245.738 203.162 246.092 202.753 246.515 202.424L246.702 202.278C247.125 201.948 247.609 201.705 248.126 201.563C248.643 201.421 249.183 201.382 249.715 201.448C250.247 201.515 250.76 201.685 251.226 201.951C251.692 202.216 252.102 202.57 252.431 202.993C252.694 203.331 253.027 203.609 253.407 203.806C253.788 204.003 254.206 204.116 254.634 204.137C255.062 204.158 255.489 204.086 255.887 203.927C256.285 203.767 256.643 203.524 256.938 203.213L267.521 192.04C268.266 191.255 269.292 190.798 270.374 190.769C271.456 190.739 272.505 191.14 273.291 191.883L273.465 192.048C273.854 192.417 274.167 192.859 274.385 193.348C274.603 193.837 274.723 194.365 274.738 194.901C274.752 195.437 274.661 195.97 274.469 196.47C274.278 196.971 273.989 197.429 273.62 197.818L257.196 215.154C256.816 215.556 256.356 215.877 255.847 216.096C255.338 216.315 254.789 216.428 254.235 216.428Z" fill="#14B8A6"/>
<path d="M240.254 243.822L235.928 244.304L231.83 227.521L238.214 226.81L240.254 243.822Z" fill="#A0616A"/>
<path d="M268.753 168.372C268.618 168.238 268.473 168.108 268.328 167.985C267.211 167.059 266.045 166.195 264.834 165.397C263.463 164.484 261.921 163.552 260.176 162.589C259.332 162.123 258.44 161.647 257.5 161.161C257.029 160.918 256.544 160.673 256.046 160.426C256.025 160.413 256.003 160.402 255.98 160.392L255.836 160.318L245.339 168.984L244.593 169.57L246.527 171.954C246.527 171.954 246.358 173.85 246.362 173.851L244.443 178.641L244.421 178.651L237.582 181.773L230.535 184.99L226.749 186.719C225.871 187.119 225.082 187.69 224.427 188.398C223.772 189.105 223.264 189.937 222.933 190.843C222.585 191.784 222.428 192.785 222.47 193.787C222.513 194.79 222.755 195.773 223.182 196.681C223.267 196.867 223.362 197.052 223.463 197.23L225.036 207.12C225.975 213.036 227.802 218.775 230.455 224.146L232.857 233.403L233.222 233.22L238.656 230.499L240.091 229.781L240.362 223.561C240.393 222.852 240.397 222.139 240.372 221.427C240.335 220.263 240.224 219.102 240.039 217.952L236.924 198.554C237.476 198.328 238.022 198.102 238.56 197.875C241.053 196.831 243.413 195.777 245.641 194.711C252.886 191.248 258.788 187.654 263.611 183.76C264.966 182.668 266.237 181.55 267.424 180.406C267.86 179.988 268.285 179.566 268.698 179.14C268.796 179.042 268.892 178.945 268.986 178.845C269.836 177.954 270.448 176.864 270.767 175.675C271.086 174.486 271.102 173.236 270.813 172.04C270.489 170.646 269.775 169.374 268.753 168.372Z" fill="#2F2E41"/>
<path d="M239.902 240.884L235.219 241.402L234.484 241.482L234.963 244.263L229.521 249.579C229.252 249.842 229.073 250.183 229.012 250.554C228.951 250.925 229.01 251.306 229.181 251.641C229.352 251.977 229.625 252.248 229.961 252.417C230.297 252.585 230.679 252.642 231.049 252.579L238.777 251.255L239.637 248.276L240.629 250.938L243.539 250.44L241.04 240.759L239.902 240.884Z" fill="#2F2E41"/>
<path d="M244.358 144.595L248.368 140.343L242.712 127.968L241.87 123.621C241.761 123.056 241.506 122.53 241.129 122.095C240.753 121.66 240.269 121.332 239.726 121.142C239.183 120.953 238.599 120.909 238.034 121.016C237.469 121.123 236.942 121.376 236.505 121.75C235.858 122.305 235.451 123.089 235.372 123.938C235.292 124.787 235.545 125.633 236.077 126.299L239.2 130.202L244.358 144.595Z" fill="#A0616A"/>
<path d="M248.368 138.439L243.798 143.008L244.673 149.689C244.951 150.562 245.45 151.347 246.121 151.97C246.792 152.592 247.613 153.031 248.503 153.243C249.602 153.504 250.754 153.409 251.795 152.971C252.835 152.533 253.709 151.776 254.29 150.808L264.568 133.19C265.297 131.976 265.521 130.526 265.195 129.148C264.868 127.771 264.016 126.576 262.82 125.818C262.176 125.411 261.454 125.143 260.701 125.033C259.948 124.923 259.179 124.973 258.447 125.18C257.714 125.386 257.033 125.745 256.447 126.232C255.862 126.719 255.386 127.324 255.05 128.008L248.777 141.375L248.368 138.439Z" fill="#E6E6E6"/>
<path d="M243.764 205.869C243.528 206.109 243.292 206.346 243.052 206.585C242.576 207.06 242.092 207.532 241.608 207.997C241.364 208.231 241.117 208.465 240.873 208.695L240.875 208.703L240.859 208.71L240.854 208.714L240.447 208.924L239.436 207.434L238.969 206.748L238.31 205.776L237.102 203.998L230.741 194.636L236.445 191.691L236.895 192.565L236.897 192.565L237.12 192.998L241.291 201.081L242.143 202.733L242.17 202.783L242.681 203.77L243.123 204.625L243.616 205.581L243.764 205.869Z" fill="#A0616A"/>
<path d="M242.586 202.834L238.615 205.369L237.992 205.766L239.65 208.049L237.121 215.223C236.995 215.578 236.987 215.963 237.096 216.323C237.205 216.683 237.427 216.998 237.728 217.223C238.029 217.448 238.395 217.571 238.771 217.574C239.147 217.576 239.514 217.459 239.818 217.238L246.164 212.633L245.618 209.581L247.684 211.529L250.074 209.795L243.552 202.218L242.586 202.834Z" fill="#2F2E41"/>
<path d="M104.716 62.4433L107.757 52.5409C104.098 48.5145 99.5122 45.442 94.3969 43.5901C99.3946 51.8699 94.5518 62.6709 96.5698 72.1291C97.2218 75.0742 98.5282 77.8349 100.392 80.2065C102.256 82.5781 104.63 84.4998 107.338 85.8293L111.952 91.5463C114.371 87.3202 115.845 82.6198 116.272 77.7692C116.699 72.9185 116.07 68.0329 114.428 63.4488C113.481 60.8863 112.215 58.4532 110.66 56.207C107.918 59.4304 104.716 62.4433 104.716 62.4433Z" fill="#F2F2F2"/>
<path d="M87.9971 63.7086L86.3023 53.4894C81.2322 51.5172 75.7572 50.8124 70.3529 51.4363C78.5187 56.6181 79.0012 68.4453 85.0257 76.0108C86.9227 78.356 89.3232 80.2443 92.0492 81.5357C94.7752 82.827 97.7569 83.4884 100.773 83.4708L107.453 86.53C107.733 81.6686 106.956 76.8043 105.175 72.2721C103.395 67.7399 100.652 63.6477 97.1379 60.2773C95.1476 58.406 92.9294 56.7929 90.536 55.4759C89.5194 59.5838 87.9971 63.7086 87.9971 63.7086Z" fill="#F2F2F2"/>
<path d="M146.191 33.6964L149.314 29.7929C149.846 29.1273 150.099 28.2809 150.02 27.4322C149.94 26.5836 149.533 25.7992 148.886 25.2445C148.45 24.8701 147.922 24.617 147.357 24.5103C146.792 24.4036 146.209 24.4471 145.665 24.6365C145.122 24.8259 144.638 25.1545 144.262 25.5895C143.886 26.0244 143.63 26.5506 143.521 27.1153L142.68 31.4619L139.487 40.0808L143.318 41.9961L146.191 33.6964Z" fill="#FFB8B8"/>
<path d="M136.614 44.8691L130.341 31.5016C130.005 30.8183 129.529 30.2134 128.944 29.7262C128.359 29.239 127.678 28.8804 126.945 28.6739C126.212 28.4674 125.444 28.4175 124.69 28.5274C123.937 28.6374 123.215 28.9048 122.572 29.3122C121.376 30.0697 120.523 31.2648 120.197 32.6423C119.87 34.0198 120.095 35.4704 120.823 36.6844L131.101 54.3017C131.682 55.2697 132.556 56.0275 133.596 56.4653C134.637 56.9032 135.79 56.9982 136.888 56.7368C137.778 56.5247 138.599 56.0862 139.27 55.4636C139.942 54.8411 140.441 54.0557 140.719 53.1835L144.595 41.0385L139.487 38.4847L136.614 44.8691Z" fill="#2F2E41"/>
<path d="M148.452 40.5669L144.342 40.2223C143.697 40.1675 143.1 39.859 142.682 39.3646C142.264 38.8701 142.059 38.23 142.113 37.5848L143.694 18.7272C143.749 18.0821 144.057 17.485 144.552 17.0671C145.046 16.6491 145.686 16.4444 146.331 16.4978L150.441 16.8424C151.086 16.8972 151.683 17.2057 152.101 17.7001C152.519 18.1946 152.724 18.8347 152.671 19.4799L151.089 38.3375C151.035 38.9826 150.726 39.5797 150.232 39.9976C149.737 40.4156 149.097 40.6203 148.452 40.5669Z" fill="#3F3D56"/>
<path d="M145.77 17.4193C145.422 17.3905 145.077 17.5008 144.811 17.7261C144.544 17.9513 144.378 18.273 144.349 18.6207L142.767 37.4783C142.739 37.826 142.849 38.1709 143.074 38.4373C143.299 38.7038 143.621 38.87 143.969 38.8996L148.079 39.2442C148.426 39.273 148.771 39.1626 149.038 38.9374C149.304 38.7122 149.47 38.3904 149.5 38.0428L151.081 19.1852C151.11 18.8375 151 18.4926 150.774 18.2261C150.549 17.9597 150.227 17.7934 149.88 17.7639L145.77 17.4193Z" fill="#14B8A6"/>
<path d="M137.361 57.5402H120.262V74.6391H137.361V57.5402Z" fill="#FFB8B8"/>
<path d="M140.687 56.0779C141.193 56.0779 141.603 55.6678 141.603 55.1619C141.603 54.656 141.193 54.2458 140.687 54.2458C140.181 54.2458 139.771 54.656 139.771 55.1619C139.771 55.6678 140.181 56.0779 140.687 56.0779Z" fill="#2F2E41"/>
<path d="M155.949 129.766L160.51 129.765L162.679 112.175L155.948 112.175L155.949 129.766Z" fill="#FFB6B6"/>
<path d="M154.818 127.516L162.027 127.086V130.175L168.881 134.908C169.22 135.142 169.475 135.478 169.609 135.867C169.743 136.256 169.75 136.677 169.627 137.07C169.505 137.463 169.26 137.806 168.929 138.05C168.597 138.294 168.197 138.425 167.785 138.425H159.202L157.723 135.37L157.145 138.425H153.909L154.818 127.516Z" fill="#2F2E41"/>
<path d="M122.104 142.323L126.014 144.67L136.927 130.704L131.156 127.24L122.104 142.323Z" fill="#FFB6B6"/>
<path d="M122.292 139.812L128.695 143.153L127.105 145.801L130.545 153.387C130.715 153.762 130.761 154.181 130.676 154.584C130.591 154.986 130.379 155.351 130.072 155.625C129.765 155.899 129.379 156.067 128.969 156.105C128.559 156.144 128.148 156.05 127.795 155.839L120.436 151.422L120.74 148.041L118.673 150.363L115.898 148.698L122.292 139.812Z" fill="#2F2E41"/>
<path d="M30.4038 140.792C30.3588 140.792 30.3138 140.791 30.2683 140.789C29.7382 140.77 29.2206 140.623 28.7595 140.361C28.2984 140.099 27.9075 139.729 27.62 139.283C25.4666 136.065 22.8241 133.202 19.7877 130.799C17.9495 129.33 16.0287 127.964 14.1713 126.642C9.37932 123.235 4.86649 120.026 2.36141 115.592C-3.10041 105.923 3.33169 92.4557 12.5205 86.4161C22.8271 79.6423 36.3838 78.5798 49.4983 78.4405C50.8613 78.4261 52.2251 78.4189 53.5897 78.419C77.2193 78.4281 100.799 80.5841 124.039 84.8606C131.766 86.2863 139.855 88.0329 146.355 92.2714C152.817 96.4849 156.744 103.12 156.361 109.176C155.802 118.016 146.43 124.622 137.897 126.349C129.763 127.994 121.313 126.882 112.367 125.705C110.392 125.446 108.35 125.177 106.331 124.943C84.3859 122.407 43.1602 130.225 41.4161 130.559L39.6857 130.891L32.9718 139.531C32.6698 139.924 32.281 140.243 31.8355 140.462C31.39 140.681 30.9001 140.794 30.4038 140.792Z" fill="#14B8A6"/>
<path d="M128.129 97.6648H35.3733C34.838 97.6648 34.3247 97.4522 33.9462 97.0737C33.5677 96.6953 33.3551 96.1819 33.3551 95.6467C33.3551 95.1114 33.5677 94.5981 33.9462 94.2196C34.3247 93.8412 34.838 93.6285 35.3733 93.6285H128.129C128.664 93.6285 129.177 93.8412 129.556 94.2196C129.934 94.5981 130.147 95.1114 130.147 95.6467C130.147 96.1819 129.934 96.6953 129.556 97.0737C129.177 97.4522 128.664 97.6648 128.129 97.6648Z" fill="white"/>
<path d="M128.129 110.053H35.3734C35.1082 110.053 34.8455 110.001 34.6004 109.9C34.3552 109.799 34.1323 109.651 33.9446 109.464C33.7568 109.276 33.6077 109.054 33.5059 108.809C33.4041 108.564 33.3516 108.302 33.3513 108.036C33.351 107.771 33.403 107.509 33.5043 107.264C33.6056 107.018 33.7542 106.796 33.9416 106.608C34.129 106.421 34.3515 106.272 34.5965 106.17C34.8414 106.069 35.104 106.016 35.3692 106.016H128.129C128.663 106.017 129.176 106.23 129.554 106.608C129.932 106.987 130.144 107.5 130.144 108.034C130.144 108.569 129.932 109.082 129.554 109.46C129.176 109.839 128.663 110.052 128.129 110.053Z" fill="white"/>
<path d="M46.1825 122.44H35.3733C34.8385 122.439 34.3259 122.226 33.948 121.848C33.5702 121.469 33.3579 120.956 33.3579 120.422C33.3579 119.887 33.5702 119.374 33.948 118.996C34.3259 118.617 34.8385 118.404 35.3733 118.404H46.1825C46.7173 118.404 47.2299 118.617 47.6078 118.996C47.9857 119.374 48.1979 119.887 48.1979 120.422C48.1979 120.956 47.9857 121.469 47.6078 121.848C47.2299 122.226 46.7173 122.439 46.1825 122.44Z" fill="white"/>
<path d="M137.967 69.7441L119.685 67.5624L120.211 71.0284C120.211 71.0284 107.832 81.0035 116.306 92.0093L120.398 95.9994L120.021 97.8744H122.648L122.93 100.137L134.232 109.492L134.881 111.406H136.742L135.833 113.583L127.442 133.098L134.394 136.339L147.197 111.795L143.917 104.397L132.12 89.4649L150.393 96.6826L150.704 98.267L152.384 97.9488L152.06 100.281L155.625 118.628L163.178 117.625L162.401 94.7963C162.343 93.5485 161.956 92.3383 161.278 91.2886C160.601 90.239 159.658 89.3873 158.545 88.82C154.673 86.8314 140.371 81.3059 140.371 81.3059L137.967 69.7441Z" fill="#2F2E41"/>
<path d="M130.644 29.7545L127.202 25.3305L122.293 25.1176L121.803 29.2785L119.37 30.4002C116.941 39.6281 116.566 49.2766 118.271 58.6653C118.597 58.9722 118.836 59.3606 118.961 59.7903C119.087 60.2201 119.096 60.6756 118.987 61.11L118.829 61.7387L118.844 61.7617C119.362 62.5785 119.537 63.5661 119.333 64.5112L114.886 72.4134C124.33 76.2625 131.253 69.0845 137.667 59.6776L141.636 45.9374L130.644 29.7545Z" fill="#3F3D56"/>
<path d="M140.991 55.1922L141.918 45.9222L129.612 27.7065L129.106 28.0481L141.288 46.0813L140.383 55.1313L140.991 55.1922Z" fill="#2F2E41"/>
<path d="M127.443 24.9673C132.456 24.9673 136.52 20.9033 136.52 15.89C136.52 10.8768 132.456 6.81274 127.443 6.81274C122.429 6.81274 118.365 10.8768 118.365 15.89C118.365 20.9033 122.429 24.9673 127.443 24.9673Z" fill="#FFB8B8"/>
<path d="M128.61 4.8194L127.471 4.85554L127.084 4.86782L122.749 5.00536C118.907 5.12727 115.903 8.7302 116.04 13.0527C113.234 16.0559 114.219 19.6753 116.644 23.5285C120.812 23.9133 124.907 24.8705 128.814 26.3732L129.287 24.0198L130.464 27.0621C131.438 27.4966 132.406 27.9748 133.367 28.4968C132.101 23.3585 131.484 18.2117 132.113 14.1785L134.098 14.1155L134.029 11.9432L134.772 14.0941L138.371 13.9799C138.331 12.7375 138.048 11.5151 137.536 10.3823C137.024 9.24956 136.294 8.22872 135.388 7.37809C134.481 6.52745 133.416 5.86367 132.253 5.42465C131.09 4.98563 129.852 4.77997 128.61 4.8194Z" fill="#2F2E41"/>
<path d="M120.773 8.64345C123.133 8.64345 125.047 6.72959 125.047 4.36872C125.047 2.00786 123.133 0.0939941 120.773 0.0939941C118.412 0.0939941 116.498 2.00786 116.498 4.36872C116.498 6.72959 118.412 8.64345 120.773 8.64345Z" fill="#2F2E41"/>
<path d="M148.856 38.2659L151.979 34.3624C152.512 33.6968 152.765 32.8504 152.685 32.0018C152.605 31.1531 152.199 30.3687 151.552 29.814C151.115 29.4397 150.588 29.1865 150.023 29.0798C149.457 28.9731 148.874 29.0167 148.331 29.206C147.788 29.3954 147.304 29.724 146.928 30.159C146.551 30.594 146.296 31.1201 146.186 31.6848L145.345 36.0314L142.153 44.6503L145.983 46.5657L148.856 38.2659Z" fill="#FFB8B8"/>
<path d="M139.28 49.4387L133.006 36.0712C132.67 35.3878 132.194 34.7829 131.609 34.2957C131.024 33.8085 130.343 33.45 129.61 33.2434C128.877 33.0369 128.109 32.987 127.356 33.097C126.602 33.2069 125.88 33.4743 125.237 33.8817C124.041 34.6392 123.189 35.8343 122.862 37.2118C122.535 38.5893 122.76 40.0399 123.488 41.2539L133.767 58.8712C134.347 59.8392 135.221 60.597 136.262 61.0348C137.302 61.4727 138.455 61.5678 139.553 61.3063C140.444 61.0943 141.265 60.6557 141.936 60.0332C142.607 59.4106 143.106 58.6252 143.384 57.7531L147.26 45.608L142.153 43.0543L139.28 49.4387Z" fill="#2F2E41"/>
<path d="M271.217 176.109C270.822 176.744 270.418 177.375 270.012 178.001C269.256 179.166 268.48 180.314 267.684 181.445C267.684 181.448 267.681 181.448 267.678 181.451C267.214 181.881 266.701 182.255 266.15 182.567C266.127 182.584 266.101 182.596 266.078 182.61C265.672 182.834 265.24 183.008 264.791 183.126C264.63 183.167 264.465 183.207 264.304 183.247C263.721 183.386 263.145 183.504 262.571 183.608C261.55 183.79 260.54 183.919 259.536 184C259.456 184.009 259.375 184.014 259.294 184.02C255.167 184.323 251.149 183.836 246.956 183.037C244.885 182.645 242.771 182.174 240.582 181.687C239.867 181.525 239.149 181.367 238.422 181.208C238.367 181.197 238.309 181.182 238.252 181.171C237.213 180.943 236.158 180.718 235.076 180.496C233.715 180.216 234.413 180.2 232.953 179.943C232.953 179.943 236.32 183.362 236.88 184.845C237.503 186.668 237.996 188.11 236.955 191.112L240.188 197.46L228.947 199.366C222.752 187.226 217.8 179.232 220.012 174.524C220.021 174.304 220.038 174.082 220.067 173.863C220.185 172.867 220.499 171.903 220.993 171.03C221.487 170.156 222.149 169.39 222.943 168.775C223.703 168.181 224.573 167.745 225.503 167.49C226.434 167.236 227.405 167.169 228.362 167.293L230.568 167.579L247.68 166.747L248.352 164.007L248.476 163.961L252.418 162.516L266.055 157.518L266.089 157.506L266.986 157.178L267.093 157.351C267.125 157.403 267.156 157.455 267.185 157.506C268.072 159.096 268.794 160.771 269.34 162.507C270.258 165.343 271.014 168.229 271.604 171.151C271.63 171.278 271.653 171.394 271.673 171.497L271.682 171.529C271.69 171.578 271.696 171.61 271.699 171.618C272.013 172.928 271.794 174.526 271.217 176.109Z" fill="#2F2E41"/>
<path d="M268.34 122.816L268.242 117.351L259.582 116.343L258.674 120.959L249.573 129.511C243.102 137.422 247.804 142.878 248.085 143.689L248.886 153.664L249.389 157.13L247.423 166.615L272.233 171.937C273.027 165.38 272.143 159.287 266.963 154.382L269.58 146.238C270.907 144.112 271.739 141.715 272.014 139.224L272.109 138.372C274.421 131.166 273.051 128.74 268.34 122.816Z" fill="#E6E6E6"/>
<path d="M280.49 105.733C280.496 105.875 280.498 106.016 280.498 106.154C280.496 107.682 280.132 109.187 279.437 110.547C278.741 111.907 277.734 113.083 276.497 113.979C275.259 114.876 273.828 115.466 272.319 115.703C270.81 115.94 269.266 115.817 267.814 115.343L266.035 114.763C266.02 114.758 266.003 114.755 265.988 114.749L263.055 113.792C263.046 113.668 263.048 113.543 263.061 113.42C258.686 111.551 264.734 105.41 266.236 100.799C266.47 100.08 258.438 100.617 258.818 100.002C258.735 99.9592 258.651 99.916 258.573 99.8727C259.93 97.7315 261.936 96.08 264.298 95.1596C266.66 94.2391 269.254 94.0978 271.702 94.7562C271.765 94.7706 271.832 94.7908 271.895 94.8081C277.594 94.9495 280.588 98.9209 280.588 104.078C280.588 104.631 280.555 105.184 280.49 105.733Z" fill="#2F2E41"/>
<path d="M275.552 107.764C274.787 110.105 273.124 112.048 270.928 113.164C268.731 114.279 266.182 114.477 263.84 113.714C263.574 113.627 263.315 113.529 263.061 113.419C260.929 112.506 259.217 110.828 258.26 108.715C257.303 106.603 257.171 104.209 257.89 102.004C258.118 101.302 258.43 100.63 258.818 100.002C260.012 98.0688 261.874 96.64 264.051 95.9865C266.227 95.333 268.568 95.5002 270.63 96.4564C272.691 97.4126 274.331 99.0915 275.238 101.175C276.145 103.259 276.257 105.603 275.552 107.764Z" fill="#A0616A"/>
<path d="M266.033 114.763C266.017 114.759 266.002 114.754 265.987 114.747L263.055 113.792C263.047 113.666 257.663 117.23 257.678 117.105C257.762 116.141 263.828 111.442 264.734 110.349C265.32 109.651 265.728 108.821 265.922 107.931C266.116 107.04 266.09 106.116 265.847 105.238C265.605 104.359 265.152 103.553 264.528 102.888C263.904 102.224 263.128 101.721 262.267 101.423C262.241 101.417 262.215 101.408 262.191 101.397C261.623 101.199 261.079 100.997 260.568 100.795C260.317 99.7479 260.188 100.094 259.582 99.2072C259.693 100.014 258.668 100.624 258.653 101.439C258.444 101.343 258.246 101.244 258.055 101.145C257.971 101.1 257.891 101.058 257.811 101.016C257.224 100.743 256.711 100.333 256.315 99.8203C257.781 95.3155 263.39 91.7093 267.895 93.183L269.597 93.7352C271.744 94.4321 273.528 95.9503 274.559 97.9582C275.801 98.91 276.791 100.15 277.445 101.572C281.169 109.055 273.976 117.314 266.033 114.763Z" fill="#2F2E41"/>
<path d="M278.35 102.241C280.58 102.241 282.387 100.433 282.387 98.2028C282.387 95.9728 280.58 94.165 278.35 94.165C276.12 94.165 274.312 95.9728 274.312 98.2028C274.312 100.433 276.12 102.241 278.35 102.241Z" fill="#2F2E41"/>
<path d="M329.648 106.438C328.792 110.329 327.079 113.979 324.634 117.123C322.189 120.267 319.073 122.826 315.513 124.614C315.06 124.838 314.599 125.048 314.135 125.242C314.177 123.359 313.635 121.509 312.585 119.945C312.756 121.213 312.776 122.496 312.646 123.768C312.575 124.498 312.454 125.222 312.284 125.935C309.297 126.92 306.159 127.373 303.015 127.272C302.836 125.875 302.331 124.539 301.542 123.372C301.712 124.64 301.733 125.923 301.603 127.196C298.443 126.939 295.355 126.112 292.49 124.755C291.001 124.046 289.539 123.159 288.58 121.819C287.304 120.033 287.091 117.676 287.403 115.505C287.715 113.331 288.496 111.256 289.04 109.131C289.585 107.006 289.893 104.732 289.254 102.634C288.618 100.532 286.832 98.6626 284.642 98.4989C283.644 98.4227 282.643 98.6969 281.645 98.6055C280.648 98.5103 279.566 97.8439 279.543 96.8424L280.499 95.2888C280.903 92.5699 282.289 89.8739 284.665 88.4916C287.037 87.1055 290.449 87.4026 292.144 89.5655C293.572 91.3857 293.518 93.9141 293.987 96.1799C295.076 101.442 299.284 105.677 304.173 107.908C309.066 110.136 314.573 110.604 319.949 110.513C321.792 110.479 323.666 110.38 325.418 109.797C327.173 109.211 328.811 108.084 329.648 106.438Z" fill="#2F2E41"/>
<path d="M238.074 130.706L236.493 111.848C236.439 111.203 236.644 110.563 237.062 110.068C237.48 109.574 238.077 109.265 238.722 109.211L242.832 108.866C243.477 108.813 244.117 109.017 244.612 109.435C245.106 109.853 245.415 110.45 245.47 111.095L247.051 129.953C247.104 130.598 246.899 131.238 246.482 131.733C246.064 132.227 245.467 132.536 244.821 132.59L240.711 132.935C240.066 132.988 239.426 132.784 238.932 132.366C238.437 131.948 238.129 131.351 238.074 130.706Z" fill="#3F3D56"/>
<path d="M239.284 110.132C238.936 110.162 238.614 110.328 238.389 110.594C238.164 110.861 238.053 111.206 238.082 111.553L239.663 130.411C239.693 130.759 239.859 131.08 240.126 131.306C240.392 131.531 240.737 131.641 241.085 131.612L245.195 131.268C245.542 131.238 245.864 131.072 246.089 130.805C246.315 130.539 246.425 130.194 246.396 129.846L244.815 110.989C244.785 110.641 244.619 110.319 244.353 110.094C244.086 109.869 243.741 109.759 243.394 109.787L239.284 110.132Z" fill="#14B8A6"/>
<path d="M246.213 137.176L250.215 135.649L247.891 126.757L247.483 122.348C247.431 121.775 247.228 121.227 246.897 120.756C246.565 120.286 246.116 119.912 245.595 119.669C245.073 119.427 244.497 119.326 243.924 119.376C243.351 119.427 242.801 119.626 242.329 119.956C241.63 120.444 241.149 121.184 240.985 122.021C240.822 122.857 240.99 123.724 241.454 124.439L244.175 128.633L246.213 137.176Z" fill="#A0616A"/>
<path d="M250.372 134.061L245.037 136.097L247.693 148.566C247.884 149.461 248.302 150.292 248.909 150.978C249.515 151.664 250.288 152.181 251.154 152.48C252.221 152.849 253.377 152.869 254.456 152.536C255.534 152.203 256.479 151.536 257.153 150.63L269.123 134.116C269.968 132.98 270.335 131.558 270.147 130.155C269.958 128.752 269.228 127.479 268.112 126.607C267.513 126.138 266.821 125.8 266.082 125.616C265.343 125.432 264.574 125.406 263.824 125.539C263.074 125.672 262.361 125.961 261.731 126.388C261.1 126.815 260.567 127.37 260.165 128.017L252.6 140.698L250.372 134.061Z" fill="#E6E6E6"/>
<path opacity="0.2" d="M246.033 140.773L248.73 151.724L249.289 152.405C249.733 152.945 250.299 153.37 250.94 153.645C251.582 153.92 252.28 154.037 252.976 153.986C253.673 153.935 254.346 153.717 254.941 153.352C255.536 152.986 256.034 152.483 256.394 151.885L264.94 137.675L257.235 148.337C256.803 148.935 256.226 149.413 255.558 149.728C254.891 150.042 254.155 150.181 253.419 150.134C252.683 150.086 251.971 149.852 251.349 149.454C250.728 149.056 250.218 148.507 249.867 147.858L246.033 140.773Z" fill="black"/>
</g>
<defs>
<clipPath id="clip0_43_479">
<rect width="329.296" height="252.51" fill="white" transform="translate(0.351807 0.0939331)"/>
</clipPath>
</defs>
</svg>
