<svg width="440" height="254" viewBox="0 0 440 254" fill="none" xmlns="http://www.w3.org/2000/svg">
<path d="M244.816 60.6069H243.428V22.6247C243.428 16.7944 241.11 11.2029 236.984 7.08031C232.857 2.95768 227.261 0.641609 221.425 0.641602H140.879C137.99 0.641594 135.128 1.2102 132.459 2.31494C129.789 3.41969 127.363 5.03895 125.32 7.08026C123.277 9.12157 121.656 11.545 120.55 14.2121C119.445 16.8792 118.875 19.7378 118.875 22.6246V230.998C118.875 233.885 119.445 236.744 120.55 239.411C121.656 242.078 123.277 244.501 125.32 246.543C127.363 248.584 129.789 250.203 132.459 251.308C135.128 252.413 137.99 252.981 140.879 252.981H221.425C227.26 252.981 232.857 250.665 236.984 246.543C241.11 242.42 243.428 236.829 243.428 230.998V87.6433H244.816L244.816 60.6069Z" fill="#3F3D56"/>
<path d="M222.313 6.36084H211.799C212.282 7.54513 212.467 8.83005 212.336 10.1024C212.206 11.3747 211.764 12.5955 211.05 13.657C210.336 14.7186 209.371 15.5884 208.241 16.1899C207.112 16.7913 205.851 17.106 204.571 17.1061H158.427C157.147 17.106 155.886 16.7913 154.757 16.1899C153.627 15.5884 152.662 14.7186 151.948 13.657C151.234 12.5955 150.792 11.3747 150.662 10.1024C150.531 8.83005 150.716 7.54513 151.199 6.36084H141.379C137.021 6.36084 132.841 8.09045 129.76 11.1692C126.678 14.2479 124.947 18.4236 124.947 22.7775V230.845C124.947 233.001 125.372 235.136 126.198 237.128C127.024 239.119 128.234 240.929 129.76 242.454C131.286 243.978 133.097 245.187 135.091 246.012C137.084 246.837 139.221 247.262 141.379 247.262H222.313C224.471 247.262 226.607 246.837 228.601 246.012C230.595 245.187 232.406 243.978 233.932 242.454C235.458 240.929 236.668 239.12 237.494 237.128C238.32 235.136 238.745 233.001 238.745 230.845V22.7775C238.745 20.6217 238.32 18.4869 237.494 16.4951C236.668 14.5034 235.458 12.6936 233.932 11.1692C232.406 9.64474 230.595 8.4355 228.601 7.61048C226.607 6.78547 224.471 6.36084 222.313 6.36084Z" fill="white"/>
<path d="M181.706 45.1083H134.644V125.43H181.706V45.1083Z" fill="#E6E6E6"/>
<path d="M228.906 131.722H189.791V222.657H228.906V131.722Z" fill="#E6E6E6"/>
<path d="M229.047 45.1083H189.83V67.2178H229.047V45.1083Z" fill="#E6E6E6"/>
<path d="M229.047 73.3748H189.83V97.1634H229.047V73.3748Z" fill="#14B8A6"/>
<path d="M229.047 103.321H189.83V125.43H229.047V103.321Z" fill="#E6E6E6"/>
<path d="M181.764 131.722H134.703V166.725H181.764V131.722Z" fill="#E6E6E6"/>
<path d="M181.764 173.511H134.703V222.73H181.764V173.511Z" fill="#E6E6E6"/>
<path d="M288.662 100.492C288.662 108.135 281.587 106.979 272.861 106.979C264.134 106.979 257.06 108.135 257.06 100.492C257.06 92.848 260.515 79.2992 272.861 79.2992C285.631 79.2992 288.662 92.848 288.662 100.492Z" fill="#2F2E41"/>
<path d="M228.275 86.5914C227.993 87.1614 227.839 87.7862 227.825 88.4218C227.811 89.0575 227.937 89.6885 228.193 90.2705C228.449 90.8524 228.83 91.3711 229.309 91.79C229.788 92.2089 230.353 92.5179 230.964 92.6951L231.76 108.13L238.235 103.369L236.486 89.442C236.716 88.3964 236.554 87.3029 236.031 86.3687C235.508 85.4345 234.66 84.7244 233.648 84.373C232.636 84.0217 231.53 84.0534 230.539 84.4623C229.549 84.8711 228.743 85.6287 228.275 86.5914Z" fill="#FFB8B8"/>
<path d="M299.25 173.819C299.602 173.289 299.832 172.688 299.926 172.059C300.02 171.431 299.975 170.789 299.793 170.179C299.612 169.57 299.299 169.007 298.877 168.532C298.454 168.056 297.933 167.679 297.349 167.427L298.497 152.014L291.476 155.926L291.462 169.962C291.103 170.971 291.126 172.076 291.528 173.068C291.929 174.06 292.681 174.871 293.641 175.347C294.601 175.822 295.703 175.929 296.736 175.648C297.77 175.366 298.665 174.715 299.25 173.819Z" fill="#FFB8B8"/>
<path d="M266.917 248.012H272.225L274.749 227.56L266.916 227.56L266.917 248.012Z" fill="#FFB8B8"/>
<path d="M265.564 246.281L276.016 246.28H276.016C276.891 246.28 277.757 246.452 278.565 246.787C279.373 247.121 280.107 247.611 280.726 248.229C281.344 248.847 281.835 249.581 282.17 250.388C282.505 251.195 282.677 252.061 282.677 252.935V253.151L265.564 253.152L265.564 246.281Z" fill="#2F2E41"/>
<path d="M300.684 248.012H305.991L308.516 227.56L300.683 227.56L300.684 248.012Z" fill="#FFB8B8"/>
<path d="M299.33 246.281L309.782 246.28H309.782C310.657 246.28 311.523 246.452 312.331 246.787C313.139 247.121 313.874 247.611 314.492 248.229C315.111 248.847 315.601 249.581 315.936 250.388C316.271 251.195 316.443 252.061 316.443 252.935V253.151L299.33 253.152L299.33 246.281Z" fill="#2F2E41"/>
<path d="M297.655 165.327L297.424 165.285C295.491 164.936 293.534 164.582 291.814 164.213L291.644 164.176L291.643 164.002C291.613 156.162 291.584 148.324 291.54 140.415C287.432 132.141 285.704 122.889 286.551 113.691L286.561 113.594L286.64 113.537C287.389 113.018 288.263 112.707 289.172 112.636C290.081 112.566 290.992 112.739 291.812 113.138C292.614 113.576 293.3 114.199 293.812 114.955C294.324 115.712 294.647 116.579 294.755 117.486C296.32 126.004 297.939 134.825 299.746 143.518L299.752 143.549L299.749 143.582C299.08 150.671 298.388 158.001 297.678 165.094L297.655 165.327Z" fill="#14B8A6"/>
<path d="M294.195 240.723L294.153 240.523C291.67 228.79 289.273 219.235 286.955 209.995C284.177 198.922 281.545 188.429 278.888 174.85C279.253 191.974 280.101 204.276 281.075 218.417C281.515 224.802 281.97 231.405 282.431 239.113L282.445 239.349L282.21 239.343C273.903 239.13 265.393 238.617 257.163 238.122L256.945 238.109L256.96 237.891C258.518 214.946 259.007 200.036 259.363 189.148C260.115 166.179 260.231 162.649 268.795 143.209C269.12 142.472 271.056 140.293 273.186 140.625L290.035 143.245L290.065 143.393C290.54 145.786 292.9 153.046 296.165 163.095C303.146 184.577 313.696 217.04 316.992 236.391L317.029 236.61L316.809 236.642C312.022 237.321 308.577 238.029 305.245 238.713C302.093 239.361 298.833 240.031 294.396 240.692L294.195 240.723Z" fill="#2F2E41"/>
<path d="M279.55 149.317C275.053 149.318 270.608 147.759 267.422 144.723C266.924 144.434 266.502 144.029 266.194 143.543C265.885 143.057 265.697 142.504 265.647 141.93C265.566 141.405 265.6 140.868 265.748 140.358C265.896 139.847 266.154 139.375 266.504 138.974C263.38 135.196 260.154 131.292 257.066 127.315L256.981 127.206L257.08 127.017C259.1 123.161 261.189 119.174 263.195 115.234C263.335 114.891 263.565 114.591 263.86 114.368C264.156 114.144 264.507 114.004 264.876 113.963C265.196 113.902 265.525 113.908 265.843 113.979C266.161 114.05 266.462 114.185 266.726 114.376L266.73 114.28C266.813 112.286 266.897 110.291 266.984 108.401L266.993 108.199L267.195 108.194C271.052 108.109 275.041 108.021 278.958 107.789L279.108 107.78L281.051 112.111C284.207 111.805 287.382 112.449 290.169 113.96L290.297 114.028L290.283 114.173C289.501 121.615 289.671 129.127 290.788 136.526C290.728 139.905 290.663 143.358 289.976 146.11L289.956 146.191L289.888 146.237C286.825 148.268 283.226 149.34 279.55 149.317Z" fill="#14B8A6"/>
<path d="M262.997 130.53L262.738 130.411C259.716 128.896 256.685 127.216 253.754 125.591L253.349 125.512C245.63 123.964 241.379 123.112 234.415 119.032L234.362 119.001L234.333 118.946C230.846 112.292 229.874 106.475 230.745 97.4844L230.762 97.3041L230.943 97.2897C231.697 97.2285 232.928 97.1875 234.117 97.1478C235.275 97.1093 236.472 97.0692 237.206 97.0118L237.376 96.9983L237.429 97.1604C238.341 99.9755 239.116 102.602 239.937 105.382C240.78 108.24 241.652 111.194 242.714 114.476C246.602 115.593 257.026 115.259 260.267 114.818C262.137 114.626 264.026 115.49 265.33 117.118L265.39 117.193L265.375 117.289C264.661 121.639 263.842 126.015 263.05 130.247L262.997 130.53Z" fill="#14B8A6"/>
<path d="M281.996 101.03C284.813 95.8826 282.919 89.4282 277.766 86.6142C272.614 83.8002 266.153 85.6921 263.337 90.8398C260.52 95.9876 262.414 102.442 267.566 105.256C272.719 108.07 279.179 106.178 281.996 101.03Z" fill="#FFB8B8"/>
<path d="M260.523 95.3017H264.728L266.584 90.1117L266.955 95.3017H268.965L270.047 92.2742L270.263 95.3017H285.198C285.198 92.3193 284.013 89.4591 281.902 87.3503C279.791 85.2414 276.928 84.0567 273.943 84.0567H271.778C268.793 84.0567 265.93 85.2414 263.82 87.3503C261.709 89.4591 260.523 92.3193 260.523 95.3017Z" fill="#2F2E41"/>
<path d="M438.58 253.106H1.42019C1.26883 253.106 1.12367 253.054 1.01664 252.961C0.909614 252.869 0.849487 252.743 0.849487 252.612C0.849487 252.481 0.909614 252.356 1.01664 252.263C1.12367 252.171 1.26883 252.119 1.42019 252.119H438.58C438.731 252.119 438.876 252.171 438.983 252.263C439.09 252.356 439.151 252.481 439.151 252.612C439.151 252.743 439.09 252.869 438.983 252.961C438.876 253.054 438.731 253.106 438.58 253.106Z" fill="#3F3D56"/>
</svg>
