<svg width="176" height="297" viewBox="0 0 176 297" fill="none" xmlns="http://www.w3.org/2000/svg">
<path d="M28.4819 296.202C28.4819 296.574 28.7807 296.872 29.1527 296.872H175.063C175.436 296.872 175.734 296.574 175.734 296.202C175.734 295.83 175.436 295.531 175.063 295.531H29.1527C28.7807 295.531 28.4819 295.83 28.4819 296.202Z" fill="#484565"/>
<path d="M105.214 0.87391C105.214 0.87391 92.8632 -2.11939 85.3884 15.9644C79.1594 31.038 74.7399 39.0878 79.7964 44.5558C81.6059 46.5119 84.1877 47.566 86.8484 47.6562L115.316 48.592C115.316 48.592 125.767 21.1844 119.414 11.2744C113.061 1.3587 105.214 0.87391 105.214 0.87391Z" fill="#2F2E41"/>
<path d="M111.111 46.3146L97.4182 50.8186V31.1057H109.842L111.111 46.3146Z" fill="#F6A6A9"/>
<path d="M100.603 285.187H87.7727L80.3374 216.651H100.163L100.603 285.187Z" fill="#F6A6A9"/>
<path d="M75.2812 296.202C73.9339 296.202 72.7332 296.168 71.8256 296.083C68.4152 295.773 65.1682 293.259 63.5334 291.788C62.8006 291.128 62.5639 290.074 62.9472 289.167C63.2234 288.513 63.7702 288.028 64.4467 287.836L73.4491 285.266L88.0267 275.429L88.1901 275.722C88.2521 275.829 89.684 278.411 90.1631 280.153C90.3435 280.818 90.2984 281.37 90.0222 281.793C89.8305 282.092 89.5656 282.261 89.3457 282.357C89.6107 282.633 90.4393 283.191 92.9817 283.597C96.7022 284.189 97.4801 280.333 97.5139 280.17L97.5364 280.04L97.6492 279.967C99.4192 278.828 100.507 278.309 100.885 278.417C101.122 278.484 101.511 278.603 102.565 289.099C102.672 289.426 103.41 291.844 102.909 294.15C102.362 296.664 91.3864 295.796 89.1879 295.598C89.1259 295.604 80.907 296.19 75.2755 296.19V296.202H75.2812Z" fill="#2F2E41"/>
<path d="M129.578 285.187H116.753L109.312 216.651H129.138L129.578 285.187Z" fill="#F6A6A9"/>
<path d="M104.261 296.202C102.914 296.202 101.713 296.168 100.806 296.083C97.3954 295.773 94.1484 293.259 92.5137 291.788C91.7809 291.128 91.5441 290.074 91.9274 289.167C92.2036 288.513 92.7504 288.028 93.4269 287.836L102.429 285.266L117.007 275.429L117.17 275.722C117.232 275.829 118.664 278.411 119.143 280.153C119.324 280.818 119.279 281.37 119.002 281.793C118.811 282.092 118.546 282.261 118.326 282.357C118.591 282.633 119.42 283.191 121.962 283.597C125.682 284.189 126.46 280.333 126.494 280.17L126.517 280.04L126.629 279.967C128.399 278.828 129.487 278.309 129.865 278.417C130.102 278.484 130.491 278.603 131.545 289.099C131.652 289.426 132.391 291.844 131.889 294.15C131.342 296.664 120.367 295.796 118.168 295.598C118.106 295.604 109.887 296.19 104.256 296.19V296.202H104.261Z" fill="#2F2E41"/>
<path d="M133.27 116.852H70.946L93.3479 43.124H118.196L133.27 116.852Z" fill="#DDDEDF"/>
<path d="M69.2492 158.222C68.5051 162.738 65.4949 165.979 62.5242 165.455C59.5534 164.93 57.7439 160.849 58.488 156.334C58.7586 154.524 59.4745 152.816 60.5737 151.345L63.9673 132.252L73.2065 134.186L68.8772 152.799C69.4465 154.558 69.5762 156.418 69.2549 158.222L69.2492 158.222Z" fill="#F6A6A9"/>
<path d="M97.2715 43.1353C97.2715 43.1353 81.792 42.7294 80.1629 46.7994C78.5337 50.875 59.3901 147.822 59.3901 147.822H72.0172L97.2715 43.1353Z" fill="#DDDEDF"/>
<path d="M100.558 35.7619C108.095 35.7619 114.205 29.6518 114.205 22.1145C114.205 14.5772 108.095 8.46709 100.558 8.46709C93.0206 8.46709 86.9104 14.5772 86.9104 22.1145C86.9104 29.6518 93.0206 35.7619 100.558 35.7619Z" fill="#F6A6A9"/>
<path d="M102.7 5.37795C102.7 5.37795 85.18 31.4383 88.1282 47.6957L77.9363 41.3088C77.9363 41.3088 85.1123 8.39944 95.8059 5.84583L102.7 5.37231L102.7 5.37795Z" fill="#2F2E41"/>
<path d="M120.316 116.852H79.419L57.0397 208.697C56.6282 212.575 59.086 216.194 62.8572 217.203C75.1348 220.49 104.594 225.152 149.189 212.175C153.479 210.929 155.914 206.403 154.567 202.141L120.316 116.857L120.316 116.852Z" fill="#2F2E41"/>
<ellipse cx="15.1246" cy="89.0161" rx="14.859" ry="17.3797" fill="#14B8A6"/>
<ellipse cx="49.0885" cy="64.0742" rx="14.859" ry="17.3797" fill="#14B8A6"/>
<ellipse cx="87.2967" cy="64.0742" rx="14.859" ry="17.3797" fill="#14B8A6"/>
<ellipse cx="121.26" cy="89.0161" rx="14.859" ry="17.3797" fill="#14B8A6"/>
<path d="M67.6607 81.1886C28.1251 81.1886 2.91795 146.064 27.8598 162.25C46.2675 174.195 55.978 156.678 67.6607 156.678C81.989 156.678 93.1333 173.129 107.329 162.25C131.106 144.028 107.329 81.1886 67.6607 81.1886Z" fill="#14B8A6"/>
<path d="M102.249 50.0238L113.579 44.2119C118.76 42.2953 124.538 42.938 129.172 45.9538C143.264 55.1197 171.044 75.3287 159.105 85.3177C143.371 98.4859 122.103 75.1314 122.103 75.1314L102.249 50.0238Z" fill="#DDDEDF"/>
<path d="M102.001 59.9563C98.0606 57.6339 96.1271 53.6541 97.6886 51.0666C99.2501 48.4848 103.709 48.2763 107.655 50.5988C109.245 51.5063 110.581 52.7916 111.55 54.3474L128.123 64.4153L122.982 72.3298L107.187 61.5629C105.338 61.4558 103.557 60.9034 101.995 59.9507H102.001L102.001 59.9563Z" fill="#F6A6A9"/>
<path d="M113.264 69.0828L117.976 57.8255L141.004 65.4469L130.705 82.5893L113.264 69.0828Z" fill="#DDDEDF"/>
</svg>
